<?xml version="1.0" encoding="UTF-8"?>
<svg width="25" height="41" version="1.1" viewBox="0 0 25 41" xmlns="http://www.w3.org/2000/svg">
 <path d="m12.5 3.261e-4c-6.9036 0-12.5 5.5964-12.5 12.5 0.084297 3.7313 1.906 6.7682 3.4375 10.244 2.805 6.1908 5.9786 12.202 9.0625 18.255 3.1757-6.0826 6.2277-12.223 9.1875-18.412 1.4078-3.2208 3.272-6.757 3.3125-10.088 0-6.9036-5.5964-12.5-12.5-12.5zm0 6.0313a5.4218 5.5937 0 0 1 5.4218 5.5937 5.4218 5.5937 0 0 1-5.4218 5.5937 5.4218 5.5937 0 0 1-5.4218-5.5937 5.4218 5.5937 0 0 1 5.4218-5.5937z" fill="#f00" stroke-width="1.087"/>
</svg>
