<svg xmlns="http://www.w3.org/2000/svg" viewBox="0 0 484 484"><path d="M363 83.15c-10 0-19.9 1.2-29.3 3.6-18.1-45.1-62.1-74.9-112-74.9-44.1 0-84.9 25-106.3 64.4-8.1-2.4-16.5-3.7-24.5-3.7-50.1 0-90.9 40.9-90.9 91.2s40.8 91.2 90.9 91.2h52.8c9.3 40.4 45.5 70.6 88.5 70.6h23.1l-51.5 69.8c-2.4 3.3-2.6 7.7-.5 11.2 2.1 3.5 6.1 5.3 10.1 4.7l36.7-6-36.6 51c-3.2 4.5-2.2 10.7 2.3 14 1.8 1.3 3.8 1.9 5.8 1.9 3.1 0 6.2-1.4 8.1-4.2l50.6-70.6c2.4-3.3 2.5-7.7.4-11.1-2.1-3.4-6.1-5.3-10.1-4.6l-36.2 5.9 45.7-61.9h82.8c66.8 0 121.1-54.5 121.1-121.5.1-66.8-54.2-121-121-121zm-221.6 151v.6l-50.4.1c-39.1 0-70.9-31.9-70.9-71.2 0-39.2 31.8-71.2 70.9-71.2 8.2 0 17.6 1.9 25.6 5.3 5 2.1 10.7-.2 13-5.1 16.7-37 52.9-60.9 92.1-60.9 41.3 0 77.7 24.3 93 61.3-24.7 10.7-45.4 29.5-58.2 53.8-7.7-2.1-15.7-3.1-24.2-3.1-24.3 0-47.1 9.3-64.2 26.3-17.2 17-26.7 39.8-26.7 64.1zm221.6 71.3H232.3c-39.1 0-70.9-31.9-70.9-71.2 0-38.8 31.8-70.4 70.9-70.4 9.3 0 17.8 1.5 25.9 4.6 5 1.9 10.7-.4 12.8-5.4 15.7-36.4 51.9-60 92.1-60 55.7 0 101.1 45.2 101.1 100.8-.1 56-45.4 101.6-101.2 101.6z"/></svg>