<svg xmlns="http://www.w3.org/2000/svg" viewBox="0 0 488 488"><path class="prefix__sun01" d="M244 111.6c-73 0-132.4 59.4-132.4 132.4S171 376.4 244 376.4 376.4 317 376.4 244 317 111.6 244 111.6zm0 244.8c-62 0-112.4-50.4-112.4-112.4S182 131.6 244 131.6 356.4 182 356.4 244 306 356.4 244 356.4z"/><path d="M244 70.5c5.5 0 10-4.5 10-10V10c0-5.5-4.5-10-10-10s-10 4.5-10 10v50.5c0 5.5 4.5 10 10 10zM244 417.5c-5.5 0-10 4.5-10 10V478c0 5.5 4.5 10 10 10s10-4.5 10-10v-50.5c0-5.5-4.5-10-10-10zM376.3 121.7c2.6 0 5.1-1 7-2.9l41.3-41.3c3.9-3.9 3.9-10.2 0-14.1-3.9-3.9-10.2-3.9-14.1 0l-41.3 41.3c-3.9 3.9-3.9 10.2 0 14.1 2 1.9 4.5 2.9 7.1 2.9zM104.6 118.8c2 1.9 4.5 2.9 7.1 2.9 2.6 0 5.1-1 7-2.9 3.9-3.9 3.9-10.2 0-14.1L77.4 63.4c-3.9-3.9-10.2-3.9-14.1 0-3.9 3.9-3.9 10.2 0 14.1l41.3 41.3zM383.3 369.3c-3.9-3.9-10.2-3.9-14.1 0-3.9 3.9-3.9 10.2 0 14.1l41.3 41.3c2 1.9 4.5 2.9 7.1 2.9 2.5 0 5.1-1 7-2.9 3.9-3.9 3.9-10.2 0-14.1l-41.3-41.3zM104.6 369.3l-41.3 41.3c-3.9 3.9-3.9 10.2 0 14.1 2 1.9 4.5 2.9 7.1 2.9 2.6 0 5.1-1 7-2.9l41.3-41.3c3.9-3.9 3.9-10.2 0-14.1s-10.2-3.9-14.1 0zM478 234h-50.5c-5.5 0-10 4.5-10 10s4.5 10 10 10H478c5.5 0 10-4.5 10-10s-4.5-10-10-10zM70.5 244c0-5.5-4.5-10-10-10H10c-5.5 0-10 4.5-10 10s4.5 10 10 10h50.5c5.5 0 10-4.5 10-10z"/></svg>