<svg xmlns="http://www.w3.org/2000/svg" viewBox="0 0 478.1 478.1"><path d="M108.9 412.7c-2.5-4.9-8.5-6.9-13.4-4.4l-15.9 8V397c0-5.5-4.5-10-10-10s-10 4.5-10 10v19.3l-15.9-8c-4.9-2.5-10.9-.5-13.4 4.4s-.5 10.9 4.4 13.4l12.7 6.4-12.7 6.4c-4.9 2.5-6.9 8.5-4.4 13.4 1.8 3.5 5.3 5.5 8.9 5.5 1.5 0 3-.3 4.5-1.1l15.9-8v19.4c0 5.5 4.5 10 10 10s10-4.5 10-10v-19.3l15.9 8c1.4.7 3 1.1 4.5 1.1 3.7 0 7.2-2 8.9-5.5 2.5-5 .5-11-4.4-13.5l-12.7-6.4 12.7-6.4c4.9-2.5 6.9-8.5 4.4-13.4zM217.6 387.6l-12.8-6.3 12.8-6.3c4.9-2.5 7-8.5 4.5-13.4s-8.5-7-13.4-4.5l-16.4 8.1v-19c0-5.5-4.5-10-10-10s-10 4.5-10 10v19l-16.3-8.1c-4.9-2.5-10.9-.4-13.4 4.5s-.4 10.9 4.5 13.4l12.8 6.3-12.8 6.3c-4.9 2.5-7 8.5-4.5 13.4 1.7 3.5 5.3 5.6 9 5.6 1.5 0 3-.3 4.4-1l16.4-8.1v19c0 5.5 4.5 10 10 10s10-4.5 10-10v-19l16.4 8.1c1.4.7 2.9 1 4.4 1 3.7 0 7.2-2 9-5.6 2.4-4.9.4-10.9-4.6-13.4zM330.1 438.9l-12.7-6.4 12.7-6.4c4.9-2.5 6.9-8.5 4.4-13.4s-8.5-6.9-13.4-4.4l-15.9 8V397c0-5.5-4.5-10-10-10s-10 4.5-10 10v19.3l-15.9-8c-4.9-2.5-10.9-.5-13.4 4.4s-.5 10.9 4.4 13.4l12.7 6.4-12.7 6.4c-4.9 2.5-6.9 8.5-4.4 13.4 1.8 3.5 5.3 5.5 8.9 5.5 1.5 0 3-.3 4.5-1.1l15.9-8v19.4c0 5.5 4.5 10 10 10s10-4.5 10-10v-19.3l15.9 8c1.4.7 3 1.1 4.5 1.1 3.7 0 7.2-2 8.9-5.5 2.6-5 .6-11-4.4-13.5zM447.8 361.5c-2.5-4.9-8.5-6.9-13.4-4.4l-15.9 8v-19c0-5.5-4.5-10-10-10s-10 4.5-10 10v19l-15.9-8c-4.9-2.5-10.9-.5-13.4 4.4s-.5 10.9 4.4 13.4l12.7 6.4-12.7 6.4c-4.9 2.5-6.9 8.5-4.4 13.4 1.8 3.5 5.3 5.5 8.9 5.5 1.5 0 3-.3 4.5-1.1l15.9-8v19c0 5.5 4.5 10 10 10s10-4.5 10-10v-19l15.9 8c1.4.7 3 1.1 4.5 1.1 3.7 0 7.2-2 8.9-5.5 2.5-4.9.5-11-4.4-13.4l-12.7-6.4 12.7-6.4c4.9-2.5 6.9-8.5 4.4-13.4zM108.9 76.7c-2.5-4.9-8.5-6.9-13.4-4.4l-15.9 8V61c0-5.5-4.5-10-10-10s-10 4.5-10 10v19.3l-15.9-8c-4.9-2.5-10.9-.5-13.4 4.4s-.5 10.9 4.4 13.4l12.7 6.4-12.7 6.4c-4.9 2.5-6.9 8.5-4.4 13.4 1.8 3.5 5.3 5.5 8.9 5.5 1.5 0 3-.3 4.5-1.1l15.9-8V132c0 5.5 4.5 10 10 10s10-4.5 10-10v-19.3l15.9 8c1.4.7 3 1.1 4.5 1.1 3.7 0 7.2-2 8.9-5.5 2.5-4.9.5-10.9-4.4-13.4l-12.7-6.4 12.7-6.4c4.9-2.5 6.9-8.5 4.4-13.4zM142.5 65c1.7 3.5 5.3 5.6 9 5.6 1.5 0 3-.3 4.4-1l16.4-8.1v19c0 5.5 4.5 10 10 10s10-4.5 10-10v-19l16.4 8.1c1.4.7 2.9 1 4.4 1 3.7 0 7.2-2 9-5.6 2.5-4.9.5-10.9-4.5-13.4l-12.8-6.3 12.8-6.3c4.9-2.5 7-8.5 4.5-13.4s-8.5-7-13.4-4.5l-16.4 8.1v-19c0-5.5-4.5-10-10-10s-10 4.5-10 10v19l-16.4-8.1c-4.9-2.5-10.9-.4-13.4 4.5s-.4 10.9 4.5 13.4l12.8 6.3-12.8 6.3c-4.9 2.5-7 8.5-4.5 13.4zM330.1 102.9l-12.7-6.4 12.7-6.4c4.9-2.5 6.9-8.5 4.4-13.4s-8.5-6.9-13.4-4.4l-15.9 8V61c0-5.5-4.5-10-10-10s-10 4.5-10 10v19.3l-15.9-8c-4.9-2.5-10.9-.5-13.4 4.4s-.5 10.9 4.4 13.4l12.7 6.4-12.7 6.4c-4.9 2.5-6.9 8.5-4.4 13.4 1.8 3.5 5.3 5.5 8.9 5.5 1.5 0 3-.3 4.5-1.1l15.9-8V132c0 5.5 4.5 10 10 10s10-4.5 10-10v-19.3l15.9 8c1.4.7 3 1.1 4.5 1.1 3.7 0 7.2-2 8.9-5.5 2.6-4.9.6-10.9-4.4-13.4zM443.4 51.6l-12.7-6.4 12.7-6.4c4.9-2.5 6.9-8.5 4.4-13.4s-8.5-6.9-13.4-4.4l-15.9 8V10c0-5.5-4.5-10-10-10s-10 4.5-10 10v19l-15.9-8c-4.9-2.5-10.9-.5-13.4 4.4s-.5 10.9 4.4 13.4l12.7 6.4-12.7 6.4c-4.9 2.5-6.9 8.5-4.4 13.4 1.8 3.5 5.3 5.5 8.9 5.5 1.5 0 3-.3 4.5-1.1l15.9-8v19c0 5.5 4.5 10 10 10s10-4.5 10-10v-19l15.9 8c1.4.7 3 1.1 4.5 1.1 3.7 0 7.2-2 8.9-5.5 2.5-4.9.5-10.9-4.4-13.4zM108.9 249.7c-2.5-4.9-8.5-6.9-13.4-4.4l-15.9 8V234c0-5.5-4.5-10-10-10s-10 4.5-10 10v19.3l-15.9-8c-4.9-2.5-10.9-.5-13.4 4.4s-.5 10.9 4.4 13.4l12.7 6.4-12.7 6.4c-4.9 2.5-6.9 8.5-4.4 13.4 1.8 3.5 5.3 5.5 8.9 5.5 1.5 0 3-.3 4.5-1.1l15.9-8V305c0 5.5 4.5 10 10 10s10-4.5 10-10v-19.3l15.9 8c1.4.7 3 1.1 4.5 1.1 3.7 0 7.2-2 8.9-5.5 2.5-4.9.5-10.9-4.4-13.4l-12.7-6.4 12.7-6.4c4.9-2.5 6.9-8.5 4.4-13.4zM142.5 238c1.7 3.5 5.3 5.6 9 5.6 1.5 0 3-.3 4.4-1l16.4-8.1v19c0 5.5 4.5 10 10 10s10-4.5 10-10v-19l16.4 8.1c1.4.7 2.9 1 4.4 1 3.7 0 7.2-2 9-5.6 2.5-4.9.5-10.9-4.5-13.4l-12.8-6.3 12.8-6.3c4.9-2.5 7-8.5 4.5-13.4s-8.5-7-13.4-4.5l-16.4 8.1v-19c0-5.5-4.5-10-10-10s-10 4.5-10 10v19l-16.4-8.1c-4.9-2.5-10.9-.4-13.4 4.5s-.4 10.9 4.5 13.4l12.8 6.3-12.8 6.3c-4.9 2.5-7 8.5-4.5 13.4zM330.1 275.9l-12.7-6.4 12.7-6.4c4.9-2.5 6.9-8.5 4.4-13.4s-8.5-6.9-13.4-4.4l-15.9 8V234c0-5.5-4.5-10-10-10s-10 4.5-10 10v19.3l-15.9-8c-4.9-2.5-10.9-.5-13.4 4.4s-.5 10.9 4.4 13.4l12.7 6.4-12.7 6.4c-4.9 2.5-6.9 8.5-4.4 13.4 1.8 3.5 5.3 5.5 8.9 5.5 1.5 0 3-.3 4.5-1.1l15.9-8V305c0 5.5 4.5 10 10 10s10-4.5 10-10v-19.3l15.9 8c1.4.7 3 1.1 4.5 1.1 3.7 0 7.2-2 8.9-5.5 2.6-4.9.6-10.9-4.4-13.4zM447.8 198.5c-2.5-4.9-8.5-6.9-13.4-4.4l-15.9 8v-19c0-5.5-4.5-10-10-10s-10 4.5-10 10v19l-15.9-8c-4.9-2.5-10.9-.5-13.4 4.4s-.5 10.9 4.4 13.4l12.7 6.4-12.7 6.4c-4.9 2.5-6.9 8.5-4.4 13.4 1.8 3.5 5.3 5.5 8.9 5.5 1.5 0 3-.3 4.5-1.1l15.9-8v19c0 5.5 4.5 10 10 10s10-4.5 10-10v-19l15.9 8c1.4.7 3 1.1 4.5 1.1 3.7 0 7.2-2 8.9-5.5 2.5-5 .5-11-4.4-13.4l-12.7-6.4 12.7-6.4c4.9-2.5 6.9-8.5 4.4-13.4z"/></svg>