<svg xmlns="http://www.w3.org/2000/svg" viewBox="0 0 488 488"><path d="M150 379.4c-3.8-4-10.1-4.1-14.1-.3L115.3 399c-4 3.8-4.1 10.1-.3 14.1 2 2.1 4.6 3.1 7.2 3.1 2.5 0 5-.9 6.9-2.8l20.6-19.9c4-3.8 4.1-10.1.3-14.1zM216.7 379.3l-19.9 19.9c-3.9 3.9-3.9 10.2 0 14.1 2 1.9 4.5 2.9 7.1 2.9 2.6 0 5.1-.9 7-2.9l19.9-19.9c3.9-3.9 3.9-10.2 0-14.1-3.9-3.9-10.2-3.9-14.1 0zM298.5 379.1L277.9 399c-4 3.8-4.1 10.1-.3 14.1 2 2.1 4.6 3.1 7.2 3.1 2.5 0 5-.9 6.9-2.8l20.6-19.9c4-3.8 4.1-10.1.3-14.1s-10.1-4.1-14.1-.3zM54.2 379.1L33.6 399c-4 3.8-4.1 10.1-.3 14.1 2 2.1 4.6 3.1 7.2 3.1 2.5 0 5-.9 6.9-2.8L68 393.5c4-3.8 4.1-10.1.3-14.1s-10.1-4.1-14.1-.3zM176.2 450.4L155.6 471c-3.9 3.9-3.9 10.2 0 14.1 2 1.9 4.5 2.9 7.1 2.9 2.6 0 5.1-1 7-2.9l20.6-20.6c3.9-3.9 3.9-10.2 0-14.1-3.9-3.9-10.2-3.9-14.1 0zM257.9 450.4L237.3 471c-3.9 3.9-3.9 10.2 0 14.1 2 1.9 4.5 2.9 7.1 2.9 2.5 0 5.1-1 7-2.9l20.6-20.6c3.9-3.9 3.9-10.2 0-14.1-3.9-3.9-10.2-3.9-14.1 0zM94.5 450.5l-19.9 20.6c-3.8 3.9-3.7 10.3.3 14.1 1.9 1.9 4.4 2.8 6.9 2.8 2.6 0 5.2-1 7.2-3.1l19.9-20.6c3.8-3.9 3.7-10.3-.3-14.1-3.9-3.8-10.3-3.7-14.1.3zM448 150.784c-2.3-3.2-6.2-4.7-10-3.9-3 .6-6.3.6-9.8.6-40.9 0-74.1-33.1-74.1-73.9 0-12.9 3.3-25.2 9.7-36.6 1.9-3.3 1.7-7.4-.5-10.6-2.2-3.1-5.9-4.8-9.7-4.2-22.5 3.4-43 14.6-57.8 31.6-12.2 14.1-19.9 31.3-22.2 49.6-13.5-5-28.2-7.7-43.4-7.7-24.3 0-47.8 7-68.1 20.1-17.7 11.5-32.2 27.2-42.3 45.8-9.5-2.6-18.8-3.2-25.6-3.2-25.1 0-48.7 9.6-66.5 27.1-17.8 17.5-27.7 41-27.7 66 0 51.7 42.2 93.8 94.1 93.8h136c69.2 0 125.6-56.2 125.6-125.2 0-3.8-.2-7.6-.5-11.3 3.8.5 7.7.9 11.7.9 34.3 0 64.9-18 81.8-48.2 1.8-3.3 1.6-7.5-.7-10.7zM230 325.385H94c-40.9 0-74.1-33.1-74.1-73.8 0-40.3 33.2-73.1 74.1-73.1 10 0 19.5 1.7 26.8 4.7 5 2.1 10.7-.2 12.9-5.1 17.2-37.9 55-62.3 96.2-62.3 58.2 0 105.6 46.8 105.6 104.4.1 58-47.3 105.2-105.5 105.2zm136.8-135.6c-5.2 0-10.5-.8-15.5-1.8-8.7-32.2-30.1-59.2-58.6-75.6 1.1-29.1 18.9-54.1 45-65.2-2.5 8.5-3.8 17.3-3.8 26.4 0 49 37.8 89.3 85.9 93.5-13.6 14.5-32.5 22.7-53 22.7z"/></svg>