<svg viewBox="0 0 488 488" xmlns="http://www.w3.org/2000/svg"><g transform="translate(84.788 -13.621) scale(.99562)" fill="#ffd42a"><path d="M244.97 112.32c3.438 0 6.25-2.813 6.25-6.25V74.507c0-3.438-2.813-6.25-6.25-6.25s-6.25 2.812-6.25 6.25v31.563c0 3.438 2.813 6.25 6.25 6.25zm0 216.88c-3.438 0-6.25 2.813-6.25 6.25v31.562c0 3.438 2.813 6.25 6.25 6.25s6.25-2.813 6.25-6.25V335.45c0-3.438-2.813-6.25-6.25-6.25zm82.688-184.88a6.148 6.148 0 004.375-1.813l25.812-25.812c2.438-2.437 2.438-6.374 0-8.812s-6.375-2.438-8.813 0l-25.811 25.812a6.224 6.224 0 000 8.813c1.25 1.187 2.812 1.812 4.437 1.812zm-169.81-1.813c1.25 1.188 2.813 1.813 4.438 1.813s3.187-.625 4.375-1.813a6.224 6.224 0 000-8.812l-25.812-25.812c-2.438-2.438-6.375-2.438-8.813 0s-2.438 6.375 0 8.813zm174.19 156.56c-2.438-2.437-6.375-2.437-8.813 0s-2.437 6.375 0 8.813l25.812 25.812c1.25 1.188 2.813 1.813 4.438 1.813a6.256 6.256 0 004.375-1.813 6.224 6.224 0 000-8.813zm-174.19 0l-25.812 25.812a6.224 6.224 0 000 8.813c1.25 1.188 2.813 1.813 4.438 1.813s3.187-.625 4.375-1.813l25.812-25.812c2.437-2.438 2.437-6.375 0-8.813s-6.375-2.437-8.813 0zm233.38-84.562h-31.562c-3.438 0-6.25 2.813-6.25 6.25s2.813 6.25 6.25 6.25h31.562c3.438 0 6.25-2.812 6.25-6.25s-2.813-6.25-6.25-6.25zm-254.69 6.25c0-3.437-2.813-6.25-6.25-6.25H98.726c-3.437 0-6.25 2.813-6.25 6.25s2.813 6.25 6.25 6.25h31.562c3.438 0 6.25-2.812 6.25-6.25z" stroke="#ffd42a" stroke-width="7"/><circle cx="244.82" cy="220.61" r="82.755"/></g><g fill="#0055d4"><path d="M228.273 185.587c-44.978 0-86.461 25.914-107.586 66.658-8.545-2.752-17.635-4.28-26.18-4.28-49.872 0-90.5 40.895-90.5 91.119 0 50.222 40.628 91.119 90.5 91.119H228.28c66.963 0 121.416-54.886 121.416-122.312S295.24 185.579 228.28 185.579zm0 229.322H94.502c-41.327 0-74.964-34.017-74.964-75.83 0-41.815 33.637-75.831 74.964-75.831 8.7 0 18.566 2.064 27.112 5.656 3.961 1.606 8.467-.152 10.176-3.975 17.479-38.908 55.31-64.058 96.482-64.058 58.418 0 105.885 48.006 105.885 107.02S286.692 414.91 228.272 414.91z"/><path d="M85.683 420.952c-24.544-1.956-46.729-15.468-60.453-36.822-4.292-6.678-8.716-17.752-10.583-26.498-1.339-6.269-1.86-19.32-1.026-25.692 4.47-34.136 29.257-61.034 62.933-68.29 4.442-.956 6.88-1.147 14.708-1.15 8.505-.003 9.952.129 15.469 1.419 3.347.782 7.912 2.138 10.143 3.013 5.047 1.978 8.324 2.11 11.005.443 1.524-.948 2.552-2.47 5.482-8.115 12.021-23.161 29.007-40.214 51.01-51.21 15.446-7.72 30.79-11.33 48.14-11.325 17.585.005 32.348 3.432 48.23 11.194 22.045 10.773 39.33 27.901 50.594 50.131 8.207 16.2 11.997 32.25 11.997 50.812 0 10.256-1.007 18.682-3.313 27.714-8.219 32.196-29.774 58.823-59.277 73.225-10.973 5.356-20.026 8.215-32.507 10.264-6.502 1.067-7.638 1.083-82.163 1.176-41.565.052-77.74-.078-80.39-.29z"/></g></svg>