<svg xmlns="http://www.w3.org/2000/svg" viewBox="0 0 56.966 56.966"><path d="M54.294 51.003L41.23 37.413a22.093 22.093 0 005.2-14.248C46.43 10.943 36.485 1 24.264 1 12.043 1 2.1 10.943 2.1 23.165c0 12.221 9.943 22.164 22.165 22.164a21.926 21.926 0 0012.698-4.012L50.13 55.01a2.859 2.859 0 002.083.887c.75 0 1.462-.286 2.003-.808a2.894 2.894 0 00.08-4.086zm-30.03-44.22a16.4 16.4 0 0116.383 16.382 16.4 16.4 0 01-16.382 16.382A16.4 16.4 0 017.882 23.165 16.4 16.4 0 0124.265 6.782z"/><path d="M24.217 10.715c-.35 0-.657.026-.922.08a1.762 1.762 0 00-.607.185.726.726 0 00-.315.286.65.65 0 00-.106.371v9.59H13.6a.784.784 0 00-.397.106.962.962 0 00-.292.345 2.207 2.207 0 00-.212.604c-.05.228-.077.501-.077.816 0 .334.027.623.08.87.053.227.122.424.212.583a.962.962 0 00.289.339.823.823 0 00.42.106h8.645v9.593c0 .138.035.262.106.368a.928.928 0 00.316.236c.159.072.357.132.604.185.265.035.572.053.922.053.37 0 .676-.018.922-.053a2.518 2.518 0 00.58-.185.901.901 0 00.345-.239.65.65 0 00.106-.365v-9.593h8.639a.784.784 0 00.397-.106.861.861 0 00.318-.342 2.255 2.255 0 00.21-.58 4.24 4.24 0 00.08-.87c0-.318-.027-.588-.08-.816a1.452 1.452 0 00-.212-.607.861.861 0 00-.318-.342.65.65 0 00-.366-.106H26.17v-9.593a.65.65 0 00-.106-.368.708.708 0 00-.345-.289 1.495 1.495 0 00-.577-.185 4.505 4.505 0 00-.922-.08z"/></svg>