<svg viewBox="0 0 476.31 476.31" xmlns="http://www.w3.org/2000/svg"><g fill="#fff" stroke="#333" stroke-width="7.409"><path d="M459.37 170.6c-3.307-2.74-32.878-26.925-53.662-26.925-12.282 0-21.73 7.652-30.138 14.455-6.518 5.196-12.66 10.203-18.328 10.203-5.101 0-10.959-4.818-17.194-9.92-8.409-6.897-17.95-14.738-30.421-14.738-12.376 0-21.635 7.747-29.854 14.55-6.33 5.29-12.188 10.202-17.762 10.202-5.763 0-11.903-5.007-18.422-10.392-8.125-6.708-17.384-14.266-29.193-14.266-12.282 0-21.73 7.653-30.138 14.455-6.518 5.196-12.66 10.203-18.328 10.203-5.574 0-11.526-5.007-17.761-10.203-8.22-6.802-17.478-14.55-29.854-14.55s-21.635 7.748-29.854 14.55c-6.33 5.29-12.187 10.203-17.761 10.203-10.015 0-30.894-13.226-42.514-22.58-4.063-3.306-10.015-2.644-13.321 1.418s-2.646 10.014 1.417 13.32c3.401 2.74 33.727 26.832 54.418 26.832 12.376 0 21.634-7.747 29.854-14.55 6.33-5.29 12.187-10.203 17.76-10.203s11.527 5.008 17.762 10.204c8.22 6.802 17.478 14.549 29.854 14.549 12.282 0 21.73-7.653 30.138-14.455 6.519-5.196 12.66-10.203 18.328-10.203 5.102 0 10.96 4.818 17.194 9.92 8.409 6.896 17.95 14.738 30.421 14.738 12.377 0 21.635-7.747 29.854-14.55 6.33-5.29 12.188-10.203 17.762-10.203 5.763 0 11.904 5.008 18.422 10.393 8.125 6.707 17.384 14.265 29.193 14.265 12.282 0 21.73-7.652 30.138-14.454 6.518-5.196 12.66-10.204 18.328-10.204 9.92 0 30.232 13.132 41.474 22.485 1.795 1.418 3.874 2.173 6.047 2.173 2.74 0 5.385-1.133 7.369-3.4 3.306-4.063 2.74-10.015-1.228-13.322zM16.285 87.368c3.4 2.74 33.727 26.83 54.417 26.83 12.377 0 21.635-7.746 29.854-14.548 6.33-5.291 12.188-10.204 17.762-10.204s11.526 5.007 17.761 10.204c8.22 6.802 17.478 14.549 29.854 14.549 12.282 0 21.73-7.653 30.138-14.455 6.518-5.196 12.66-10.203 18.328-10.203 5.101 0 10.959 4.818 17.194 9.92 8.409 6.896 17.95 14.738 30.421 14.738 12.376 0 21.635-7.747 29.854-14.55 6.33-5.29 12.188-10.203 17.762-10.203 5.763 0 11.903 5.007 18.422 10.393 8.125 6.707 17.384 14.265 29.193 14.265 12.282 0 21.73-7.652 30.138-14.454 6.518-5.197 12.66-10.204 18.328-10.204 9.92 0 30.232 13.132 41.474 22.485 1.795 1.417 3.874 2.173 6.047 2.173 2.74 0 5.385-1.133 7.369-3.4 3.306-4.063 2.74-10.015-1.228-13.322-3.307-2.834-32.878-26.925-53.662-26.925-12.282 0-21.73 7.652-30.138 14.454-6.519 5.197-12.66 10.204-18.328 10.204-5.102 0-10.96-4.818-17.194-9.92-8.409-6.897-17.95-14.738-30.421-14.738-12.377 0-21.635 7.747-29.854 14.549-6.33 5.29-12.188 10.203-17.762 10.203-5.763 0-11.904-5.007-18.422-10.392-8.125-6.708-17.384-14.266-29.193-14.266-12.282 0-21.73 7.653-30.138 14.455-6.518 5.196-12.66 10.203-18.328 10.203-5.574 0-11.526-5.007-17.761-10.203-8.22-6.802-17.478-14.55-29.854-14.55s-21.635 7.748-29.854 14.55c-6.33 5.29-12.188 10.203-17.762 10.203-10.014 0-30.893-13.226-42.513-22.58-4.063-3.306-10.015-2.645-13.321 1.418s-2.646 10.014 1.417 13.32zM459.37 316.942c-3.307-2.74-32.878-26.925-53.662-26.925-12.282 0-21.73 7.652-30.138 14.454-6.518 5.196-12.66 10.204-18.328 10.204-5.101 0-10.959-4.819-17.194-9.92-8.409-6.897-17.95-14.738-30.421-14.738-12.376 0-21.635 7.747-29.854 14.549-6.33 5.29-12.188 10.203-17.762 10.203-5.763 0-11.903-5.007-18.422-10.392-8.125-6.708-17.384-14.266-29.193-14.266-12.282 0-21.73 7.653-30.138 14.455-6.518 5.196-12.66 10.203-18.328 10.203-5.574 0-11.526-5.007-17.761-10.203-8.22-6.802-17.478-14.55-29.854-14.55s-21.635 7.748-29.854 14.55c-6.33 5.29-12.187 10.203-17.761 10.203-10.015 0-30.894-13.226-42.514-22.58-4.063-3.306-10.015-2.645-13.321 1.418s-2.646 10.014 1.417 13.32c3.401 2.74 33.727 26.832 54.418 26.832 12.376 0 21.634-7.747 29.854-14.55 6.33-5.29 12.187-10.203 17.76-10.203s11.527 5.007 17.762 10.203c8.22 6.803 17.478 14.55 29.854 14.55 12.282 0 21.73-7.653 30.138-14.455 6.519-5.196 12.66-10.203 18.328-10.203 5.102 0 10.96 4.818 17.194 9.92 8.409 6.896 17.95 14.738 30.421 14.738 12.377 0 21.635-7.747 29.854-14.55 6.33-5.29 12.188-10.203 17.762-10.203 5.763 0 11.904 5.007 18.422 10.392 8.125 6.708 17.384 14.266 29.193 14.266 12.282 0 21.73-7.652 30.138-14.455 6.518-5.196 12.66-10.203 18.328-10.203 9.92 0 30.232 13.132 41.474 22.485 1.795 1.417 3.874 2.173 6.047 2.173 2.74 0 5.385-1.134 7.369-3.401 3.306-4.062 2.74-10.014-1.228-13.32zM459.37 243.818c-3.307-2.74-32.878-26.925-53.662-26.925-12.282 0-21.73 7.653-30.138 14.455-6.518 5.196-12.66 10.203-18.328 10.203-5.101 0-10.959-4.818-17.194-9.92-8.409-6.897-17.95-14.738-30.421-14.738-12.376 0-21.635 7.747-29.854 14.55-6.33 5.29-12.188 10.202-17.762 10.202-5.763 0-11.903-5.007-18.422-10.392-8.125-6.707-17.384-14.265-29.193-14.265-12.282 0-21.73 7.652-30.138 14.454-6.518 5.196-12.66 10.203-18.328 10.203-5.574 0-11.526-5.007-17.761-10.203-8.22-6.802-17.478-14.549-29.854-14.549s-21.635 7.747-29.854 14.55c-6.33 5.29-12.187 10.202-17.761 10.202-10.015 0-30.894-13.226-42.514-22.579-4.063-3.307-10.015-2.645-13.321 1.417s-2.646 10.014 1.417 13.321c3.401 2.74 33.727 26.831 54.418 26.831 12.376 0 21.634-7.747 29.854-14.55 6.33-5.29 12.187-10.202 17.76-10.202s11.527 5.007 17.762 10.203c8.22 6.802 17.478 14.549 29.854 14.549 12.282 0 21.73-7.653 30.138-14.455 6.519-5.196 12.66-10.203 18.328-10.203 5.102 0 10.96 4.818 17.194 9.92 8.409 6.897 17.95 14.738 30.421 14.738 12.377 0 21.635-7.747 29.854-14.55 6.33-5.29 12.188-10.202 17.762-10.202 5.763 0 11.904 5.007 18.422 10.392 8.125 6.707 17.384 14.265 29.193 14.265 12.282 0 21.73-7.652 30.138-14.454 6.518-5.196 12.66-10.203 18.328-10.203 9.92 0 30.232 13.132 41.474 22.485 1.795 1.417 3.874 2.172 6.047 2.172 2.74 0 5.385-1.228 7.369-3.4 3.306-4.063 2.74-10.015-1.228-13.322zM459.37 390.16c-3.307-2.834-32.878-26.925-53.662-26.925-12.282 0-21.73 7.652-30.138 14.454-6.518 5.197-12.66 10.204-18.328 10.204-5.101 0-10.959-4.818-17.194-9.92-8.409-6.897-17.95-14.738-30.421-14.738-12.376 0-21.635 7.747-29.854 14.549-6.33 5.29-12.188 10.203-17.762 10.203-5.763 0-11.903-5.007-18.422-10.392-8.125-6.708-17.384-14.266-29.193-14.266-12.282 0-21.73 7.653-30.138 14.455-6.518 5.196-12.66 10.203-18.328 10.203-5.574 0-11.526-5.007-17.761-10.203-8.22-6.802-17.478-14.55-29.854-14.55s-21.635 7.748-29.854 14.55c-6.33 5.29-12.187 10.203-17.761 10.203-10.015 0-30.894-13.226-42.514-22.58-4.063-3.306-10.015-2.645-13.321 1.418s-2.646 10.014 1.417 13.32c3.401 2.74 33.727 26.832 54.418 26.832 12.376 0 21.634-7.747 29.854-14.55 6.33-5.29 12.187-10.203 17.76-10.203s11.527 5.007 17.762 10.204c8.22 6.802 17.478 14.549 29.854 14.549 12.282 0 21.73-7.653 30.138-14.455 6.519-5.196 12.66-10.203 18.328-10.203 5.102 0 10.96 4.818 17.194 9.92 8.409 6.896 17.95 14.738 30.421 14.738 12.377 0 21.635-7.747 29.854-14.55 6.33-5.29 12.188-10.203 17.762-10.203 5.763 0 11.904 5.007 18.422 10.393 8.125 6.707 17.384 14.265 29.193 14.265 12.282 0 21.73-7.652 30.138-14.454 6.518-5.197 12.66-10.204 18.328-10.204 9.92 0 30.232 13.132 41.474 22.485 1.795 1.417 3.874 2.173 6.047 2.173 2.74 0 5.385-1.133 7.369-3.4 3.306-4.063 2.74-10.015-1.228-13.322z" stroke-width="6.99965275"/></g></svg>