<svg xmlns="http://www.w3.org/2000/svg" viewBox="0 0 488 488"><path d="M336 49.8c5.5 0 10-4.5 10-10V10c0-5.5-4.5-10-10-10s-10 4.5-10 10v29.8c0 5.5 4.5 10 10 10zM417.7 80.3c2.5 0 5.1-1 7-2.9l19.8-19.8c3.9-3.9 3.9-10.2 0-14.1-3.9-3.9-10.2-3.9-14.1 0l-19.8 19.8c-3.9 3.9-3.9 10.2 0 14.1 2 1.9 4.5 2.9 7.1 2.9zM424.7 226.6c-3.9-3.9-10.2-3.9-14.1 0-3.9 3.9-3.9 10.2 0 14.1l19.8 19.9c2 1.9 4.5 2.9 7.1 2.9 2.6 0 5.2-.9 7-2.9 3.9-3.9 3.9-10.2 0-14.1l-19.8-19.9zM478 132.1h-29.8c-5.5 0-10 4.5-10 10s4.5 10 10 10H478c5.5 0 10-4.5 10-10s-4.5-10-10-10zM247.2 77.4c2 1.9 4.5 2.9 7.1 2.9 2.6 0 5.1-1 7-2.9 3.9-3.9 3.9-10.2 0-14.1l-19.9-19.8c-3.9-3.9-10.2-3.9-14.1 0-3.9 3.9-3.9 10.2 0 14.1l19.9 19.8zM405.1 108.9c-9.9-16.2-25.2-28.4-43.1-34.3-34.9-11.6-73.7 3.8-92.3 35.9-14.2-5.8-29.7-8.9-46-8.9-23.6 0-46.6 6.8-66.3 19.7-17.2 11.2-31.2 26.4-41 44.5-9.2-2.5-18.2-3.1-24.7-3.1-24.5 0-47.5 9.4-64.8 26.5C9.5 206.3 0 229.2 0 253.7c0 50.6 41.1 91.7 91.7 91.7h132.1c64.2 0 116.9-49.7 121.8-112.6 16.7-1.6 32.5-8.7 45.1-20.2 13.9-12.8 22.9-30.2 25.5-49.1 2.8-19-1.1-38.3-11.1-54.6zM223.8 325.2H91.7C52.2 325.2 20 293 20 253.5c0-39.1 32.2-70.9 71.7-70.9 9.6 0 18.8 1.6 25.9 4.6 5 2.1 10.7-.2 13-5.1 16.7-36.8 53.2-60.5 93.2-60.5 56.4 0 102.2 45.5 102.2 101.5 0 56.3-45.9 102.1-102.2 102.1zm172.6-164.8v.2c-3.6 27.2-25 48.5-50.8 51.9-3.4-39.3-25.7-73.4-57.9-93 14.1-23.4 42.5-34.5 68.1-26 27.6 9.3 45 38 40.6 66.9zM150 379.4c-3.8-4-10.1-4.1-14.1-.3L115.3 399c-4 3.8-4.1 10.1-.3 14.1 2 2.1 4.6 3.1 7.2 3.1 2.5 0 5-.9 6.9-2.8l20.6-19.9c4-3.8 4.1-10.1.3-14.1zM216.7 379.3l-19.9 19.9c-3.9 3.9-3.9 10.2 0 14.1 2 1.9 4.5 2.9 7.1 2.9 2.6 0 5.1-.9 7-2.9l19.9-19.9c3.9-3.9 3.9-10.2 0-14.1s-10.2-3.9-14.1 0zM298.5 379.1L277.9 399c-4 3.8-4.1 10.1-.3 14.1 2 2.1 4.6 3.1 7.2 3.1 2.5 0 5-.9 6.9-2.8l20.6-19.9c4-3.8 4.1-10.1.3-14.1s-10.1-4.1-14.1-.3zM54.2 379.1L33.6 399c-4 3.8-4.1 10.1-.3 14.1 2 2.1 4.6 3.1 7.2 3.1 2.5 0 5-.9 6.9-2.8L68 393.5c4-3.8 4.1-10.1.3-14.1s-10.1-4.1-14.1-.3zM176.2 450.4L155.6 471c-3.9 3.9-3.9 10.2 0 14.1 2 1.9 4.5 2.9 7.1 2.9 2.6 0 5.1-1 7-2.9l20.6-20.6c3.9-3.9 3.9-10.2 0-14.1-3.9-3.9-10.2-3.9-14.1 0zM257.9 450.4L237.3 471c-3.9 3.9-3.9 10.2 0 14.1 2 1.9 4.5 2.9 7.1 2.9 2.5 0 5.1-1 7-2.9l20.6-20.6c3.9-3.9 3.9-10.2 0-14.1-3.9-3.9-10.2-3.9-14.1 0zM94.5 450.5l-19.9 20.6c-3.8 3.9-3.7 10.3.3 14.1 1.9 1.9 4.4 2.8 6.9 2.8 2.6 0 5.2-1 7.2-3.1l19.9-20.6c3.8-3.9 3.7-10.3-.3-14.1-3.9-3.8-10.3-3.7-14.1.3z"/></svg>