<svg xmlns="http://www.w3.org/2000/svg" viewBox="0 0 480.924 480.924"><path d="M455.076 205.424c-2.3-3.2-6.2-4.7-10-3.9-2.8.6-6 .6-9.4.6-39 0-70.8-31.6-70.8-70.3 0-12.3 3.1-24 9.3-34.9 1.9-3.3 1.7-7.4-.5-10.6-2.2-3.2-5.9-4.8-9.7-4.2-21.7 3.3-41.5 14.1-55.8 30.4-11.7 13.4-19.1 29.8-21.4 47.2-12.9-4.7-26.9-7.2-41.4-7.2-23.4 0-46.1 6.7-65.6 19.3-17 11-30.9 26-40.6 43.7-9.1-2.4-17.9-3-24.4-3-24.2 0-47 9.3-64.1 26-17.2 16.9-26.7 39.5-26.7 63.5 0 49.8 40.7 90.3 90.8 90.3h130.6c66.7 0 121-54 121-120.4 0-3.5-.2-6.9-.5-10.3 3.5.5 7.1.8 10.8.8 33.1 0 62.6-17.3 78.9-46.4 2-3.2 1.8-7.4-.5-10.6zm-209.7 167.1h-130.6c-39 0-70.8-31.6-70.8-70.3 0-38.4 31.8-69.6 70.8-69.6 9.5 0 18.6 1.6 25.6 4.5 5 2.1 10.7-.2 12.9-5.1 16.4-36.1 52.6-59.5 92.1-59.5 55.7 0 101 44.7 101 99.6 0 55.3-45.3 100.4-101 100.4zm131.4-129.9c-4.8 0-9.9-.8-14.6-1.7-8.4-30.7-28.9-56.6-56.2-72.3 1.1-27.3 17.7-50.8 42.2-61.5-2.3 7.9-3.4 16.1-3.4 24.5 0 46.9 36.1 85.5 82 89.9-12.9 13.5-30.7 21.1-50 21.1z"/></svg>