<svg xmlns="http://www.w3.org/2000/svg" viewBox="0 0 489.1 489.1"><path d="M180.1 370.6c-3.9-3.9-10.2-3.9-14.1 0l-20.6 20.6c-3.9 3.9-3.9 10.2 0 14.1 2 1.9 4.5 2.9 7.1 2.9 2.5 0 5.1-1 7-3l20.6-20.5c3.9-3.9 3.9-10.2 0-14.1zM246.6 370.7l-19.8 20.6c-3.8 3.9-3.7 10.3.3 14.1 1.9 1.9 4.4 2.8 6.9 2.8 2.7 0 5.3-1.1 7.2-3.1l19.8-20.6c3.8-3.9 3.7-10.3-.3-14.1-3.9-3.8-10.3-3.7-14.1.3zM328.3 370.6l-20.6 20.6c-3.9 3.9-3.9 10.2 0 14.1 2 1.9 4.5 2.9 7.1 2.9 2.6 0 5.1-1 7-2.9l20.6-20.6c3.9-3.9 3.9-10.2 0-14.1-3.9-3.9-10.2-3.9-14.1 0zM409.9 370.6l-20.6 20.6c-3.9 3.9-3.9 10.2 0 14.1 2 1.9 4.5 2.9 7.1 2.9 2.5 0 5.1-1 7.1-3l20.5-20.5c3.9-3.9 3.9-10.2 0-14.1-3.9-3.9-10.2-3.9-14.1 0zM84.4 370.6l-20.6 20.6c-3.9 3.9-3.9 10.2 0 14.1 2 1.9 4.5 2.9 7.1 2.9 2.6 0 5.1-1 7-2.9l20.6-20.6c3.9-3.9 3.9-10.2 0-14.1-3.9-3.9-10.2-3.9-14.1 0zM206.4 441.6l-20.6 20.6c-3.9 3.9-3.9 10.2 0 14.1 2 1.9 4.5 2.9 7.1 2.9 2.5 0 5.1-1 7-2.9l20.6-20.6c3.9-3.9 3.9-10.2 0-14.1s-10.2-3.9-14.1 0zM287.9 441.6l-20.6 20.6c-3.9 3.9-3.9 10.2 0 14.1 2 1.9 4.5 2.9 7.1 2.9 2.6 0 5.1-1 7.1-2.9l20.5-20.6c3.9-3.9 3.9-10.2 0-14.1-3.9-3.9-10.2-3.9-14.1 0zM368.6 441.7l-19.8 20.6c-3.8 3.9-3.7 10.3.3 14.1 1.9 1.9 4.4 2.8 6.9 2.8 2.6 0 5.2-1 7.2-3.1l19.8-20.6c3.8-3.9 3.7-10.3-.3-14.1-3.9-3.8-10.3-3.7-14.1.3zM124.7 441.7l-19.8 20.6c-3.8 3.9-3.7 10.3.3 14.1 1.9 1.9 4.4 2.8 6.9 2.8 2.6 0 5.2-1 7.2-3.1l19.8-20.6c3.8-3.9 3.7-10.3-.3-14.1-3.9-3.8-10.3-3.7-14.1.3zM397.5 71.1c-8 0-16.6 1.3-24.7 3.7-21.5-39.7-62.6-64.9-107.1-64.9-26.2 0-51.3 8.3-72.5 24-18.1 13.4-32.3 31.8-40.7 52.4-9.8-2.5-20.1-3.9-30.5-3.9C54.7 82.4 0 136.9 0 204c0 67.4 54.7 122.3 122 122.3h131.9c43.7 0 80.3-30.8 89.4-71.8h54.2c50.5 0 91.6-41.2 91.6-91.8 0-50.4-41.1-91.6-91.6-91.6zM253.8 306.4H122c-56.3 0-102-45.9-102-102.3 0-56 45.8-101.6 102-101.6 40.6 0 77.1 23.7 93 60.4 2.1 4.9 7.8 7.3 12.8 5.4 8.2-3.1 16.7-4.7 26.1-4.7 39.5 0 71.6 31.8 71.6 71-.1 39.6-32.2 71.8-71.7 71.8zm143.7-71.8h-52.1c0-24.4-9.6-47.3-26.9-64.5-17.3-17.1-40.2-26.5-64.7-26.5-8.6 0-16.7 1-24.5 3.1-12.8-24.3-33.4-43-57.9-53.9 15.7-37.5 53.3-63 94.2-63 39.7 0 76.2 24.1 93 61.4 2.2 4.9 8 7.2 13 5.1 8.1-3.4 17.6-5.3 25.9-5.3 39.5 0 71.6 32.2 71.6 71.8s-32.1 71.8-71.6 71.8z"/></svg>