<svg xmlns="http://www.w3.org/2000/svg" viewBox="0 0 489 489"><path d="M367 159c-10.3 0-20.5 1.3-30.2 3.8-8.4-20.8-22.7-39.4-40.9-52.9-21.2-15.7-46.3-24-72.5-24-44.5 0-85.6 25.2-107.1 64.9-8.1-2.4-16.7-3.7-24.7-3.7-50.5 0-91.6 41.2-91.6 91.8s41.1 91.8 91.6 91.8h54c8.9 41.3 45.6 72.4 89.5 72.4H367c67.3 0 122-54.9 122-122.3 0-67.3-54.7-121.8-122-121.8zM143.5 310.2h-52c-39.4.2-71.5-32-71.5-71.6 0-39.6 32.1-71.8 71.6-71.8 8.3 0 17.7 1.9 25.9 5.3 5 2.1 10.7-.2 13-5.1 16.8-37.3 53.4-61.4 93-61.4 41.1 0 78.8 25.7 94.4 63.4-24.7 10.8-45.4 29.6-58.3 54-7.8-2.1-15.9-3.1-24.5-3.1-24.4 0-47.4 9.4-64.7 26.5-17.2 17-26.7 39.6-26.9 63.8zM367 382.8H235.1c-39.5 0-71.6-32.2-71.6-71.8 0-39.1 32.1-71 71.6-71 9.4 0 18 1.5 26.1 4.7 5 1.9 10.6-.4 12.8-5.4 15.9-36.7 52.4-60.4 93-60.4 56.3 0 102 45.6 102 101.6 0 56.4-45.8 102.3-102 102.3z"/></svg>