<svg viewBox="0 0 487.91 487.91" xmlns="http://www.w3.org/2000/svg"><path d="M245.49 37.151c-115.15 0-208.83 93.682-208.83 208.83 0 115.15 93.682 208.83 208.83 208.83 115.15 0 208.83-93.682 208.83-208.83 0-115.15-93.682-208.83-208.83-208.83zm22.664 229.56l-108.89 63.679 62.423-107.24 109.66-60.441z" fill="none" stroke="#000" stroke-width="20"/><path fill="none" d="M191.08 298.064l76.284-38.135 32.903-67.148-74.75 33.651z"/><path d="M179.76 306.71c.891-.964 46.397-80.138 46.719-80.157.745-.045 34.986 32.483 34.59 32.859-.235.224-18.079 10.716-39.654 23.316-21.574 12.6-39.819 23.288-40.543 23.751-.724.463-20.105 20.762-1.113.23z"/></svg>