<?xml version="1.0" encoding="UTF-8"?>
<svg version="1.1" viewBox="0 0 488 488" xmlns="http://www.w3.org/2000/svg">
 <g fill="#ffe680">
  <path d="M474.495 141.095a4.31 4.31 0 00-4.381-1.191c-8.166 2.467-17.354 3.743-26.626 3.743-52.36 0-94.935-41.811-94.935-93.195 0-11.399 2.169-22.884 6.678-35.048a4.253 4.253 0 00-.893-4.381c-1.106-1.191-2.765-1.617-4.296-1.191-21.608 6.252-40.195 18.927-53.72 36.75-13.569 17.821-20.715 39.003-20.715 61.29 0 56.06 46.575 101.7 103.87 101.7 20.715 0 40.706-6.04 57.975-17.524 17.184-11.485 30.285-27.563 37.856-46.49.595-1.532.298-3.276-.808-4.466zm-95.02 59.975c-52.57 0-95.36-41.812-95.36-93.19 0-38.536 24.415-73.285 60.355-87.195-3.02 10.123-4.466 19.949-4.509 29.774 0 27.222 10.761 52.784 30.327 71.97 19.523 19.182 45.47 29.731 73.115 29.731 6.933 0 13.823-.68 20.331-1.956-15.865 30.752-48.701 50.87-84.26 50.87z"/>
  <path d="M370.065 200.505c-11.943-1.18-22.98-4.37-33.82-9.771-26.394-13.154-45.263-37.907-50.484-66.23-1.118-6.059-1.395-9.354-1.395-16.582 0-7.23.277-10.522 1.397-16.592 5.676-30.779 27.282-57.465 56.28-69.51 1.071-.445 1.993-.764 2.048-.708s-.266 1.505-.715 3.222c-2.407 9.209-3.408 16.932-3.415 26.328-.004 5.532.19 8.624.85 13.528 3.845 28.61 19.962 54.135 44.613 70.645 21.294 14.267 47.804 20.105 73.74 16.242 1.218-.182 2.662-.402 3.207-.49s.991-.107.991-.042c0 .449-3.391 6.122-5.612 9.388-4.355 6.405-12.184 14.827-18.412 19.808-15.024 12.015-32.753 19.132-52.01 20.88-3.635.33-13.395.263-17.26-.12z" stroke="#ffe680" stroke-width="2"/>
 </g>
 <g fill="#0055d4">
  <path d="m237.27 107.9c-44.978 0-86.461 25.914-107.59 66.658-8.545-2.752-17.635-4.28-26.18-4.28-49.872 0-90.5 40.895-90.5 91.118 0 50.222 40.628 91.12 90.5 91.12h133.77c66.963 0 121.42-54.886 121.42-122.31s-54.456-122.31-121.42-122.31zm0 229.32h-133.77c-41.327 0-74.964-34.016-74.964-75.83s33.637-75.83 74.964-75.83c8.7 0 18.566 2.064 27.112 5.656 3.961 1.606 8.467-0.153 10.176-3.975 17.479-38.909 55.31-64.058 96.482-64.058 58.418 0 105.88 48.006 105.88 107.02s-47.465 107.02-105.88 107.02z"/>
  <path d="M94.683 343.265c-24.544-1.956-46.729-15.468-60.453-36.822-4.292-6.678-8.716-17.752-10.583-26.498-1.339-6.27-1.86-19.32-1.026-25.693 4.47-34.135 29.257-61.033 62.933-68.288 4.442-.957 6.88-1.148 14.708-1.152 8.505-.003 9.952.13 15.469 1.42 3.347.782 7.912 2.138 10.143 3.013 5.047 1.978 8.324 2.11 11.005.443 1.524-.948 2.552-2.47 5.482-8.115 12.021-23.161 29.007-40.214 51.01-51.21 15.446-7.72 30.79-11.33 48.14-11.325 17.585.005 32.348 3.432 48.23 11.194 22.045 10.772 39.33 27.901 50.594 50.131 8.207 16.199 11.997 32.25 11.997 50.812 0 10.256-1.007 18.682-3.313 27.714-8.219 32.196-29.774 58.823-59.277 73.225-10.973 5.356-20.026 8.214-32.507 10.264-6.502 1.067-7.638 1.083-82.163 1.176-41.565.052-77.74-.078-80.39-.29z"/>
  <g stroke-linecap="round" stroke-linejoin="round">
   <g stroke-width=".52826">
    <path d="m105.36 408.98c0 6.9182-5.5051 12.527-12.296 12.527s-12.296-5.6085-12.296-12.527c0-6.9182 5.9664-12.988 12.373-25.668 6.176 12.45 12.219 18.75 12.219 25.668z"/>
    <path d="m228.5 465.11c0 6.9182-5.5051 12.527-12.296 12.527s-12.296-5.6085-12.296-12.527c0-6.9182 5.9664-12.988 12.373-25.668 6.176 12.45 12.219 18.75 12.219 25.668z"/>
    <path d="m261.76 410.47c0 6.9182-5.5051 12.527-12.296 12.527s-12.296-5.6085-12.296-12.527c0-6.9182 5.9664-12.988 12.373-25.668 6.176 12.45 12.219 18.75 12.219 25.668z"/>
   </g>
   <path d="m191.43 406.08c0 8.5535-6.8064 15.488-15.202 15.488s-15.202-6.9342-15.202-15.488c0-8.5535 7.3766-16.057 15.297-31.735 7.6359 15.393 15.108 23.182 15.108 31.735z" stroke-width=".65312"/>
   <path d="m149.2 463.81c0 8.5535-6.8064 15.488-15.202 15.488s-15.202-6.9342-15.202-15.488c0-8.5535 7.3766-16.057 15.297-31.735 7.6359 15.393 15.108 23.182 15.108 31.735z" stroke-width=".65312"/>
  </g>
 </g>
</svg>
