<svg viewBox="0 0 489 489" xmlns="http://www.w3.org/2000/svg"><g fill="#333"><path d="M224.184 83.441c-44.217 0-84.999 25.914-105.767 66.658-8.4-2.752-17.336-4.28-25.736-4.28-49.029 0-88.97 40.895-88.97 91.119 0 50.222 39.941 91.119 88.97 91.119h131.51c65.829 0 119.361-54.886 119.361-122.312S290.018 83.433 224.19 83.433zm0 229.322H92.675c-40.628 0-73.696-34.017-73.696-75.83 0-41.815 33.068-75.831 73.696-75.831 8.554 0 18.253 2.064 26.653 5.656 3.895 1.606 8.325-.152 10.005-3.975 17.183-38.908 54.375-64.058 94.85-64.058 57.43 0 104.093 48.006 104.093 107.02s-46.66 107.019-104.093 107.019z"/><path d="M84.005 318.806c-24.129-1.956-45.938-15.468-59.43-36.822-4.22-6.678-8.568-17.752-10.404-26.498-1.316-6.269-1.828-19.32-1.008-25.692 4.393-34.136 28.761-61.034 61.868-68.29 4.367-.956 6.764-1.147 14.46-1.15 8.36-.003 9.783.129 15.206 1.419 3.291.782 7.779 2.138 9.972 3.013 4.962 1.978 8.183 2.11 10.819.443 1.498-.948 2.509-2.47 5.39-8.115 11.817-23.161 28.516-40.214 50.146-51.21 15.185-7.72 30.27-11.33 47.327-11.325 17.286.005 31.8 3.432 47.414 11.194 21.671 10.773 38.665 27.901 49.738 50.131 8.068 16.2 11.794 32.25 11.794 50.812 0 10.256-.99 18.682-3.257 27.714-8.08 32.196-29.27 58.823-58.275 73.225-10.787 5.356-19.687 8.215-31.957 10.264-6.392 1.067-7.51 1.083-80.773 1.176-40.862.052-76.425-.078-79.03-.29z"/></g><g fill="#0055d4"><path d="M364.917 156.694c-44.219 0-85.002 25.914-105.77 66.658-8.401-2.752-17.337-4.28-25.737-4.28-49.03 0-88.973 40.895-88.973 91.119 0 50.222 39.942 91.119 88.973 91.119h131.513c65.831 0 119.365-54.886 119.365-122.312s-53.536-122.312-119.365-122.312zm0 229.322H233.404c-40.63 0-73.699-34.017-73.699-75.83 0-41.815 33.07-75.831 73.699-75.831 8.553 0 18.253 2.064 26.654 5.656 3.895 1.606 8.324-.152 10.004-3.975 17.184-38.908 54.377-64.058 94.854-64.058 57.431 0 104.096 48.006 104.096 107.02S422.35 386.016 364.916 386.016z"/><path d="M224.734 392.059c-24.13-1.956-45.94-15.468-59.433-36.822-4.22-6.678-8.568-17.752-10.404-26.498-1.316-6.269-1.828-19.32-1.008-25.692 4.393-34.136 28.762-61.034 61.87-68.29 4.367-.956 6.764-1.147 14.46-1.15 8.361-.003 9.784.129 15.207 1.419 3.291.782 7.779 2.138 9.972 3.013 4.962 1.978 8.184 2.11 10.82.443 1.498-.948 2.508-2.47 5.389-8.115 11.818-23.161 28.518-40.214 50.148-51.21 15.186-7.72 30.271-11.33 47.329-11.325 17.286.005 31.8 3.432 47.415 11.194 21.672 10.773 38.666 27.901 49.74 50.131 8.068 16.2 11.794 32.25 11.794 50.812 0 10.256-.99 18.682-3.257 27.714-8.08 32.196-29.271 58.823-58.276 73.225-10.788 5.356-19.688 8.215-31.959 10.264-6.392 1.067-7.51 1.083-80.776 1.176-40.862.052-76.426-.078-79.032-.29z"/></g></svg>