<svg xmlns="http://www.w3.org/2000/svg" viewBox="0 0 488 488"><path d="M405.6 177.75c-9.7-16.4-24.8-28.9-42.6-35.2-.1 0-.2-.1-.3-.1-18.1-5.9-37.7-5.1-55.2 2.4-15.9 6.8-29.1 18.6-37.8 33.6-14.2-5.8-29.7-9-46-9-23.6 0-46.6 6.8-66.3 19.7-17.2 11.2-31.2 26.5-41 44.6-9.2-2.5-18.2-3.1-24.7-3.1-24.5 0-47.5 9.4-64.8 26.5C9.5 274.35 0 297.25 0 321.75c0 50.7 41.1 91.9 91.7 91.9h132.1c64.2 0 116.9-49.8 121.9-112.9 16.1-1.6 31.4-8.2 43.8-19.1 14.3-12.5 23.7-29.8 26.7-48.8 2.8-19-.9-38.6-10.6-55.1zm-181.8 216H91.7c-39.5 0-71.7-32.3-71.7-71.9 0-39.2 32.2-71.1 71.7-71.1 9.6 0 18.8 1.6 25.9 4.6 5 2.1 10.7-.2 13-5.1 16.7-36.9 53.2-60.7 93.2-60.7 56.4 0 102.2 45.6 102.2 101.7 0 56.5-45.9 102.5-102.2 102.5zm172.6-163.7c-4.1 26.7-25.4 47.4-50.8 50.7-3.4-39.4-25.7-73.5-57.9-93.3 14.2-23.7 42.3-34.7 68.8-26.1 27.6 10 44.4 38.9 39.9 68.7zM336 117.55c5.5 0 10-4.5 10-10v-29.8c0-5.5-4.5-10-10-10s-10 4.5-10 10v29.8c0 5.5 4.5 10 10 10zM417.7 148.15c2.6 0 5.1-1 7-2.9l19.8-19.9c3.9-3.9 3.9-10.2 0-14.1-3.9-3.9-10.2-3.9-14.1 0l-19.8 19.9c-3.9 3.9-3.9 10.2 0 14.1 2 1.9 4.5 2.9 7.1 2.9zM424.7 294.95c-3.9-3.9-10.2-3.9-14.1 0-3.9 3.9-3.9 10.2 0 14.1l19.8 19.9c2 1.9 4.5 2.9 7.1 2.9 2.6 0 5.1-1 7-2.9 3.9-3.9 3.9-10.2 0-14.1zM478 200.15h-29.8c-5.5 0-10 4.5-10 10s4.5 10 10 10H478c5.5 0 10-4.5 10-10s-4.5-10-10-10zM247.2 145.25c2 1.9 4.5 2.9 7.1 2.9 2.6 0 5.1-1 7-2.9 3.9-3.9 3.9-10.2 0-14.1l-19.9-19.9c-3.9-3.9-10.2-3.9-14.1 0-3.9 3.9-3.9 10.2 0 14.1z"/></svg>