<svg xmlns="http://www.w3.org/2000/svg" viewBox="0 0 488 488"><path d="M314.9 426.437zM350.9 387.637l-36 17.7-36-17.7c-2.8-1.4-6-1.4-8.8 0l-36 17.7-36.8-17.7c-2.7-1.4-5.9-1.3-8.7 0l-36 17.7-36-17.7c-2.7-1.3-5.9-1.3-8.7 0l-36.8 17.7-36-17.7c-5-2.4-11-.4-13.4 4.6-2.4 5-.4 11 4.6 13.4l40.4 19.8c2.7 1.3 5.9 1.3 8.7 0l36.8-17.7 36 17.7c2.8 1.4 6 1.4 8.8 0l36-17.7 36.8 17.7c2.7 1.4 5.9 1.3 8.7 0l36-17.7 36 17.7c1.4.7 2.9 1 4.4 1s3-.4 4.4-1l40.4-19.8c5-2.4 7-8.4 4.6-13.4-2.5-5-8.4-7-13.4-4.6zM350.8 437.937l-35.9 18.3-35.9-18.3c-2.9-1.5-6.2-1.5-9.1 0l-35.9 18.3-36.6-18.3c-2.8-1.5-6.2-1.4-9 0l-35.9 18.3-35.9-18.3c-2.8-1.4-6.2-1.4-9 0l-36.6 18.3-35.9-18.3c-4.9-2.5-10.9-.5-13.4 4.4s-.5 10.9 4.4 13.4l40.4 20.6c2.8 1.4 6.2 1.4 9 0l36.6-18.3 35.9 18.3c2.9 1.5 6.2 1.5 9.1 0l35.9-18.3 36.6 18.3c2.8 1.5 6.2 1.4 9 0l35.9-18.3 35.9 18.3c1.4.7 2.9 1.1 4.5 1.1 1.5 0 3.1-.3 4.5-1.1l40.4-20.6c4.9-2.5 6.9-8.5 4.4-13.4s-8.5-6.9-13.4-4.4zM461.9 357.237l-12.6-6.3 12.6-6.3c4.9-2.5 6.9-8.5 4.5-13.4-2.5-4.9-8.5-6.9-13.4-4.5l-16 8v-19.3c0-5.5-4.5-10-10-10s-10 4.5-10 10v19.3l-16-8c-4.9-2.5-10.9-.5-13.4 4.5-2.5 4.9-.5 10.9 4.5 13.4l12.6 6.3-12.6 6.3c-4.9 2.5-6.9 8.5-4.5 13.4 1.8 3.5 5.3 5.5 9 5.5 1.5 0 3-.3 4.5-1.1l16-8v19.3c0 5.5 4.5 10 10 10s10-4.5 10-10v-19.3l16 8c1.4.7 3 1.1 4.5 1.1 3.7 0 7.2-2 9-5.5 2.2-5 .2-11-4.7-13.4zM6 49.737l12.6 6.3-12.6 6.3c-4.9 2.5-6.9 8.5-4.5 13.4 1.8 3.5 5.3 5.5 9 5.5 1.5 0 3-.3 4.5-1.1l16-8v19.3c0 5.5 4.5 10 10 10s10-4.5 10-10v-19.3l16 8c1.4.7 3 1.1 4.5 1.1 3.7 0 7.2-2 9-5.5 2.3-4.9.3-10.9-4.7-13.4l-12.6-6.3 12.6-6.3c4.9-2.5 6.9-8.5 4.5-13.4-2.5-4.9-8.5-6.9-13.4-4.5l-16 8v-19.3c0-5.5-4.5-10-10-10s-10 4.5-10 10v19.3l-16-8c-4.9-2.5-10.9-.5-13.4 4.5-2.5 4.9-.5 10.9 4.5 13.4zM396.4 101.637zM122 355.537h131.9c43.5 0 80.1-30.5 89.3-71.3l53.2.4c50.5 0 91.6-41.1 91.6-91.5s-41.1-91.5-91.6-91.5c-8 0-16.6 1.3-24.7 3.7-21.5-39.6-62.6-64.7-107.1-64.7-27.1 0-52.3 7.5-72.9 21.8-19.2 13.3-33.2 31.6-40.7 53.3-9.3-2.3-19-3.4-29-3.4-67.3 0-122 54.4-122 121.2 0 67.3 54.8 122 122 122zm142.5-294.9c39.7 0 76.2 24 93 61.2 2.2 4.9 8 7.2 13 5.1 8.1-3.4 17.6-5.3 25.9-5.3 39.5 0 71.6 32.1 71.6 71.5 0 39.5-32.1 71.6-71.5 71.6l-51.1-.4v-.3c0-24.4-9.5-47.2-26.9-64.4-17.3-17-40.2-26.4-64.7-26.4-8.6 0-16.7 1-24.5 3.1-13-24.7-34.2-43.7-59.4-54.4 13.1-37.5 49.4-61.3 94.6-61.3zm-142.5 71.7c40.6 0 77.1 23.7 93 60.3 2.1 4.9 7.8 7.3 12.8 5.4 8.2-3.1 16.7-4.7 26.1-4.7 39.5 0 71.6 31.7 71.6 70.8 0 39.3-32.1 71.4-71.6 71.4H122c-56.3 0-102-45.8-102-102 0-55.8 45.8-101.2 102-101.2z"/></svg>