<svg xmlns="http://www.w3.org/2000/svg" viewBox="0 0 470.208 470.208"><path d="M434.167 297.478c-2.212-2.382-5.615-3.318-8.762-2.382-16.333 4.934-34.708 7.486-53.253 7.486-104.72 0-189.874-83.622-189.874-186.386 0-22.798 4.339-45.767 13.356-70.096 1.106-3.063.425-6.38-1.786-8.762-2.212-2.382-5.53-3.233-8.592-2.382-43.215 12.505-80.39 37.855-107.442 73.5-27.137 35.643-41.429 78.007-41.429 122.583 0 112.121 93.15 203.4 207.738 203.4 41.429 0 81.411-12.08 115.949-35.048 34.368-22.969 60.569-55.125 75.711-92.98 1.191-3.063.596-6.551-1.616-8.933zM244.123 417.425C138.978 417.425 53.4 333.802 53.4 231.04c0-77.072 48.83-146.573 120.713-174.39-6.04 20.246-8.933 39.897-9.018 59.547 0 54.445 21.523 105.57 60.654 143.937 39.047 38.366 90.939 59.463 146.234 59.463 13.866 0 27.647-1.361 40.662-3.913-31.73 61.505-97.403 101.742-168.52 101.742z"/></svg>