<svg viewBox="0 0 445 445" xmlns="http://www.w3.org/2000/svg"><g fill="#0055d4"><path d="M286.962 64.164c-55.946 0-107.545 32.233-133.822 82.912-10.628-3.423-21.934-5.324-32.562-5.324-62.034 0-112.57 50.868-112.57 113.338 0 62.469 50.536 113.338 112.57 113.338h166.391c83.291 0 151.023-68.269 151.023-152.137S370.258 64.153 286.97 64.153zm0 285.24H120.571c-51.405 0-93.245-42.31-93.245-94.32 0-52.011 41.84-94.322 93.245-94.322 10.822 0 23.093 2.567 33.722 7.036 4.928 1.997 10.533-.19 12.658-4.944 21.741-48.397 68.798-79.68 120.01-79.68 72.663 0 131.704 59.713 131.704 133.117S359.626 349.406 286.96 349.406z"/><path d="M109.6 356.922c-30.528-2.433-58.122-19.24-75.194-45.801-5.338-8.306-10.84-22.08-13.163-32.959-1.665-7.798-2.313-24.031-1.275-31.958 5.558-42.46 36.39-75.916 78.278-84.94 5.526-1.191 8.559-1.429 18.295-1.433 10.579-.004 12.379.16 19.24 1.765 4.164.974 9.842 2.66 12.617 3.749 6.278 2.46 10.354 2.624 13.688.55 1.896-1.178 3.175-3.07 6.82-10.093 14.952-28.81 36.08-50.02 63.448-63.699 19.212-9.602 38.299-14.091 59.88-14.085 21.871.006 40.234 4.268 59.99 13.923 27.42 13.4 48.921 34.705 62.931 62.356 10.208 20.149 14.923 40.114 14.923 63.202 0 12.757-1.253 23.237-4.121 34.472-10.223 40.047-37.034 73.167-73.732 91.08-13.648 6.663-24.909 10.218-40.434 12.767-8.087 1.328-9.5 1.348-102.199 1.464-51.699.064-96.695-.098-99.992-.36z"/></g></svg>