<?xml version="1.0" encoding="UTF-8"?>
<svg version="1.1" viewBox="0 0 478.1 478.1" xmlns="http://www.w3.org/2000/svg">
 <g fill="#fff" stroke="#0055d4" stroke-width="7">
  <path d="m269.38 214.62c3.537-3.3079 9.0376-3.2322 12.274 0.2282 3.2362 3.4604 2.9438 8.9537-0.59326 12.262l-17.992 16.826 23.129 6.6991c4.5357 1.3328 7.07 6.1084 5.6245 10.704-1.4734 4.6213-6.361 7.2665-10.925 5.9597l-23.154-6.7261 5.1624 23.552c1.0265 4.6147-1.9676 9.3405-6.6492 10.475-4.6816 1.1349-9.3048-1.6872-10.303-6.3278l-5.1371-23.525-17.992 16.826c-3.537 3.3079-9.0376 3.2322-12.274-0.2282-3.2362-3.4604-2.9438-8.9537 0.59327-12.262l17.992-16.826-23.129-6.6991c-4.5635-1.3068-7.07-6.1084-5.6245-10.704 1.4708-4.5682 6.3332-7.2405 10.897-5.9337l23.154 6.7262-5.1624-23.552c-0.99863-4.6407 1.9929-9.3135 6.6771-10.501 4.6816-1.1349 9.277 1.7132 10.303 6.3278l5.1371 23.525z"/>
  <path d="m289.37 104.7c1.6789 4.5425-0.52228 9.584-4.9663 11.226-4.444 1.6425-9.3948-0.75562-11.074-5.2981l-8.5398-23.106-15.138 18.726c-2.9862 3.6648-8.3706 4.1508-12.047 1.0376-3.6894-3.1489-4.234-8.6797-1.261-12.38l15.172-18.739-23.712-4.367c-4.6519-0.84183-7.8484-5.4332-7.0805-10.189 0.76784-4.7557 5.1608-7.9241 9.8259-7.0465l23.678 4.3798-8.5399-23.106c-1.6789-4.5425 0.52229-9.584 4.9663-11.226 4.444-1.6425 9.3948 0.75563 11.074 5.2981l8.5399 23.106 15.138-18.726c2.973-3.7006 8.3706-4.1508 12.047-1.0376 3.6414 3.126 4.2208 8.644 1.2478 12.345l-15.172 18.739 23.712 4.367c4.6651 0.8776 7.8136 5.446 7.0938 10.225-0.76784 4.7557-5.174 7.8884-9.8259 7.0465l-23.678-4.3798z"/>
  <path d="m416.76 377.99c7.0956 1.8043 11.475 8.8758 9.7141 15.799s-8.9856 11.044-16.081 9.2398l-36.069-9.1719 10.345 34.826c2.0244 6.8928-2.025 13.998-9.0354 15.882-7.0565 1.9103-14.408-2.1361-16.433-9.029l-10.327-34.898-25.743 25.726c-5.1081 5.0792-13.5 5.1222-18.75 0.0826-5.296-5.0131-5.4226-13.18-0.35141-18.269l25.687-25.664-36.032-9.1625c-7.1325-1.8137-11.475-8.8758-9.7141-15.799 1.7605-6.9234 8.9487-11.053 16.081-9.2398l36.032 9.1625-10.299-34.853c-2.0336-6.857 1.9881-14.007 9.0354-15.882 7.0104-1.8838 14.371 2.1267 16.433 9.029l10.327 34.898 25.743-25.726c5.0711-5.0886 13.454-5.0957 18.75-0.0826 5.259 5.0037 5.4134 13.216 0.3514 18.269l-25.733 25.69z"/>
  <path d="m163.41 384.54c3.7947 4.0737 3.6647 10.396-0.31665 14.105-3.9813 3.7087-10.297 3.3906-14.092-0.68311l-19.311-20.731-7.7451 26.549c-1.5152 5.2157-7.0475 8.1283-12.3 6.4543-5.278-1.7018-8.324-7.3068-6.8348-12.55l7.7993-26.599-27.111 5.868c-5.3099 1.142-10.685-2.2933-12.009-7.6785-1.3238-5.3853 1.9733-10.697 7.3092-11.811l27.005-5.8733-19.285-20.703c-3.8207-4.1016-3.6907-10.424 0.29065-14.133 3.9813-3.7087 10.297-3.3906 14.118 0.71101l19.285 20.703 7.7711-26.521c1.5163-5.2688 7.0215-8.1562 12.3-6.4543 5.3051 1.6766 8.324 7.3068 6.8088 12.523l-7.7733 26.627 27.085-5.8959c5.3359-1.1141 10.738 2.2959 12.035 7.7064 1.2978 5.3574-1.9722 10.644-7.3092 11.812l-27.031 5.8454z"/>
  <path d="m424.7 186.15c4.2327 3.6165 4.8213 9.913 1.2868 14.05-3.5345 4.1367-9.8457 4.5378-14.078 0.92127l-21.54-18.405-4.6808 27.256c-0.9132 5.354-6.0791 8.8758-11.487 7.809-5.4371-1.0916-9.0998-6.3145-8.2155-11.693l4.7289-27.313-26.269 8.9081c-5.1459 1.7375-10.876-1.0653-12.803-6.2655s0.74599-10.852 5.9209-12.565l26.163-8.9013-21.511-18.38c-4.2617-3.6413-4.8503-9.9378-1.3158-14.074 3.5345-4.1367 9.8457-4.5378 14.107-0.8965l21.511 18.38 4.7098-27.232c0.90793-5.407 6.0501-8.9006 11.487-7.809 5.4612 1.0634 9.0997 6.3145 8.1865 11.668l-4.6999 27.337 26.24-8.9328c5.1749-1.7127 10.929 1.0619 12.832 6.2902 1.8976 5.1754-0.75094 10.799-5.9209 12.565l-26.192 8.8766z"/>
  <path d="m160.09 169.02c5.6794 4.6203 6.6796 12.878 2.1714 18.419-4.5082 5.5416-12.796 6.2427-18.476 1.6224l-28.87-23.486-5.256 35.948c-1.0611 7.1052-7.7225 11.849-14.875 10.611-7.2057-1.2335-12.175-7.9958-11.114-15.101l5.3027-36.006-34.173 12.519c-6.7701 2.4608-14.402-1.0282-17.047-7.8079-2.6975-6.7751 0.62134-14.239 7.3619-16.723l34.097-12.486-28.841-23.462c-5.709-4.6443-6.6796-12.878-2.1714-18.419 4.5082-5.5416 12.767-6.2668 18.476-1.6225l28.841 23.462 5.3089-35.953c1.0378-7.0765 7.693-11.873 14.875-10.611 7.1527 1.2382 12.145 7.9717 11.114 15.101l-5.3027 36.006 34.173-12.519c6.7405-2.4849 14.349 1.0328 17.047 7.8079 2.6679 6.751-0.64471 14.267-7.3619 16.723l-34.15 12.49z"/>
 </g>
</svg>
