<?xml version="1.0" encoding="UTF-8"?>
<svg version="1.1" viewBox="0 0 478.1 478.1" xmlns="http://www.w3.org/2000/svg">
 <g fill="#fff" stroke="#0055d4" stroke-width="7">
  <path d="m289.37 104.7c1.6789 4.5425-0.52228 9.584-4.9663 11.226-4.444 1.6425-9.3948-0.75562-11.074-5.2981l-8.5398-23.106-15.138 18.726c-2.9862 3.6648-8.3706 4.1508-12.047 1.0376-3.6894-3.1489-4.234-8.6797-1.261-12.38l15.172-18.739-23.712-4.367c-4.6519-0.84183-7.8484-5.4332-7.0805-10.189 0.76784-4.7557 5.1608-7.9241 9.8259-7.0465l23.678 4.3798-8.5399-23.106c-1.6789-4.5425 0.52229-9.584 4.9663-11.226 4.444-1.6425 9.3948 0.75563 11.074 5.2981l8.5399 23.106 15.138-18.726c2.973-3.7006 8.3706-4.1508 12.047-1.0376 3.6414 3.126 4.2208 8.644 1.2478 12.345l-15.172 18.739 23.712 4.367c4.6651 0.8776 7.8136 5.446 7.0938 10.225-0.76784 4.7557-5.174 7.8884-9.8259 7.0465l-23.678-4.3798z"/>
  <path d="m416.76 377.99c7.0956 1.8043 11.475 8.8758 9.7141 15.799s-8.9856 11.044-16.081 9.2398l-36.069-9.1719 10.345 34.826c2.0244 6.8928-2.025 13.998-9.0354 15.882-7.0565 1.9103-14.408-2.1361-16.433-9.029l-10.327-34.898-25.743 25.726c-5.1081 5.0792-13.5 5.1222-18.75 0.0826-5.296-5.0131-5.4226-13.18-0.35141-18.269l25.687-25.664-36.032-9.1625c-7.1325-1.8137-11.475-8.8758-9.7141-15.799 1.7605-6.9234 8.9487-11.053 16.081-9.2398l36.032 9.1625-10.299-34.853c-2.0336-6.857 1.9881-14.007 9.0354-15.882 7.0104-1.8838 14.371 2.1267 16.433 9.029l10.327 34.898 25.743-25.726c5.0711-5.0886 13.454-5.0957 18.75-0.0826 5.259 5.0037 5.4134 13.216 0.3514 18.269l-25.733 25.69z"/>
  <path d="m160.09 169.02c5.6794 4.6203 6.6796 12.878 2.1714 18.419-4.5082 5.5416-12.796 6.2427-18.476 1.6224l-28.87-23.486-5.256 35.948c-1.0611 7.1052-7.7225 11.849-14.875 10.611-7.2057-1.2335-12.175-7.9958-11.114-15.101l5.3027-36.006-34.173 12.519c-6.7701 2.4608-14.402-1.0282-17.047-7.8079-2.6975-6.7751 0.62134-14.239 7.3619-16.723l34.097-12.486-28.841-23.462c-5.709-4.6443-6.6796-12.878-2.1714-18.419 4.5082-5.5416 12.767-6.2668 18.476-1.6225l28.841 23.462 5.3089-35.953c1.0378-7.0765 7.693-11.873 14.875-10.611 7.1527 1.2382 12.145 7.9717 11.114 15.101l-5.3027 36.006 34.173-12.519c6.7405-2.4849 14.349 1.0328 17.047 7.8079 2.6679 6.751-0.64471 14.267-7.3619 16.723l-34.15 12.49z"/>
 </g>
 <g fill="#0055d4" stroke-linecap="round" stroke-linejoin="round">
  <path d="m155.32 376.85c0 20.954-16.674 37.941-37.242 37.941-20.568 0-37.242-16.987-37.242-37.941s18.071-39.337 37.475-77.744c18.706 37.708 37.01 56.79 37.01 77.744z" stroke-width="1.6"/>
  <path d="m277.54 261.69c0 15.768-12.547 28.551-28.025 28.551-15.478 0-28.025-12.783-28.025-28.551 0-15.768 13.598-29.602 28.201-58.503 14.077 28.376 27.85 42.735 27.85 58.503z" stroke-width="1.204"/>
  <path d="m421.07 169.35c0 20.954-16.674 37.941-37.242 37.941s-37.242-16.987-37.242-37.941 18.071-39.337 37.475-77.744c18.706 37.708 37.01 56.79 37.01 77.744z" stroke-width="1.6"/>
 </g>
</svg>
