<svg viewBox="0 0 470.21 470.21" xmlns="http://www.w3.org/2000/svg"><g fill="#ffe680"><path d="M434.17 297.48a8.619 8.619 0 00-8.762-2.382c-16.333 4.934-34.708 7.486-53.253 7.486-104.72 0-189.87-83.622-189.87-186.39 0-22.798 4.339-45.767 13.356-70.096 1.106-3.063.425-6.38-1.786-8.762-2.212-2.382-5.53-3.233-8.592-2.382-43.215 12.505-80.39 37.855-107.44 73.5-27.137 35.643-41.429 78.007-41.429 122.58 0 112.12 93.15 203.4 207.74 203.4 41.429 0 81.411-12.08 115.95-35.048 34.368-22.969 60.569-55.125 75.711-92.98 1.191-3.063.596-6.551-1.616-8.933zM244.13 417.43c-105.14 0-190.72-83.623-190.72-186.38 0-77.072 48.83-146.57 120.71-174.39-6.04 20.246-8.933 39.897-9.018 59.547 0 54.445 21.523 105.57 60.654 143.94 39.047 38.366 90.939 59.463 146.23 59.463 13.866 0 27.647-1.361 40.662-3.913-31.73 61.505-97.403 101.74-168.52 101.74z"/><path d="M225.31 416.3c-23.886-2.361-45.961-8.74-67.639-19.543-52.789-26.307-90.528-75.812-100.97-132.46-2.235-12.116-2.789-18.706-2.789-33.162 0-14.462.554-21.045 2.793-33.185 11.353-61.558 54.565-114.93 112.56-139.02 2.143-.89 3.987-1.528 4.098-1.417s-.533 3.011-1.43 6.445c-4.814 18.418-6.818 33.864-6.831 52.657-.008 11.064.38 17.248 1.698 27.056 7.692 57.22 39.926 108.27 89.227 141.29 42.59 28.533 95.609 40.21 147.48 32.483 2.438-.363 5.324-.804 6.415-.98s1.982-.214 1.982-.084c0 .898-6.783 12.243-11.225 18.776-8.71 12.81-24.367 29.654-36.823 39.615-30.049 24.03-65.507 38.265-104.02 41.762-7.27.66-26.79.525-34.519-.24z" stroke="#ffe680" stroke-width="4"/></g></svg>