<svg viewBox="0 0 488 488" xmlns="http://www.w3.org/2000/svg"><g transform="translate(7.394 7.394) scale(.9697)" fill="#ffd42a"><path d="M244 70.5c5.5 0 10-4.5 10-10V10c0-5.5-4.5-10-10-10s-10 4.5-10 10v50.5c0 5.5 4.5 10 10 10zm0 347c-5.5 0-10 4.5-10 10V478c0 5.5 4.5 10 10 10s10-4.5 10-10v-50.5c0-5.5-4.5-10-10-10zm132.3-295.8c2.6 0 5.1-1 7-2.9l41.3-41.3c3.9-3.9 3.9-10.2 0-14.1s-10.2-3.9-14.1 0l-41.3 41.3c-3.9 3.9-3.9 10.2 0 14.1 2 1.9 4.5 2.9 7.1 2.9zm-271.7-2.9c2 1.9 4.5 2.9 7.1 2.9s5.1-1 7-2.9c3.9-3.9 3.9-10.2 0-14.1L77.4 63.4c-3.9-3.9-10.2-3.9-14.1 0s-3.9 10.2 0 14.1zm278.7 250.5c-3.9-3.9-10.2-3.9-14.1 0s-3.9 10.2 0 14.1l41.3 41.3c2 1.9 4.5 2.9 7.1 2.9 2.5 0 5.1-1 7-2.9 3.9-3.9 3.9-10.2 0-14.1zm-278.7 0l-41.3 41.3c-3.9 3.9-3.9 10.2 0 14.1 2 1.9 4.5 2.9 7.1 2.9s5.1-1 7-2.9l41.3-41.3c3.9-3.9 3.9-10.2 0-14.1s-10.2-3.9-14.1 0zM478 234h-50.5c-5.5 0-10 4.5-10 10s4.5 10 10 10H478c5.5 0 10-4.5 10-10s-4.5-10-10-10zM70.5 244c0-5.5-4.5-10-10-10H10c-5.5 0-10 4.5-10 10s4.5 10 10 10h50.5c5.5 0 10-4.5 10-10z" stroke="#ffd42a" stroke-width="7"/><circle cx="243.76" cy="243.76" r="132.41"/></g></svg>