<svg xmlns="http://www.w3.org/2000/svg" viewBox="0 0 485 485"><path d="M461.1 162.2l-260.6-42.9c-3.2-.5-6.4.5-8.7 2.8l-70.1 69.7V83.6c18.7-4.5 32.6-21.3 32.6-41.2C154.3 19 135.2 0 111.7 0S69.1 19 69.1 42.4c0 20 13.9 36.7 32.6 41.2V465H25.5c-5.5 0-10 4.5-10 10s4.5 10 10 10h172.6c5.5 0 10-4.5 10-10s-4.5-10-10-10h-76.3V239.7l70.1 69.1c1.9 1.9 4.4 2.9 7 2.9.5 0 1.1 0 1.6-.1l260.6-42.9c4.8-.8 8.4-5 8.4-9.9v-86.7c0-5-3.5-9.1-8.4-9.9zM89.2 42.4C89.2 30 99.3 20 111.8 20c12.5 0 22.6 10 22.6 22.4s-10.1 22.4-22.6 22.4-22.6-10-22.6-22.4zm99.7 235.3l-62.9-62 62.9-62.6v124.6zm86.3 1.2l-66.3 10.9V140.9l66.3 10.9v127.1zm87.1-14.3l-67.1 11.1V155.1l67.1 11.1v98.4zm87.2-14.4l-67.1 11.1v-91.8l67.1 11v69.7z"/></svg>