<svg xmlns="http://www.w3.org/2000/svg" viewBox="0 0 488 488"><path d="M244 111.6c-73 0-132.4 59.4-132.4 132.4S171 376.4 244 376.4 376.4 317 376.4 244 317 111.6 244 111.6zm0 244.8c-62 0-112.4-50.4-112.4-112.4S182 131.6 244 131.6 356.4 182 356.4 244 306 356.4 244 356.4z" class="prefix__prefix__sun01"/><path d="M244 70.5c5.5 0 10-4.5 10-10V10c0-5.5-4.5-10-10-10s-10 4.5-10 10v50.5c0 5.5 4.5 10 10 10zm0 347c-5.5 0-10 4.5-10 10V478c0 5.5 4.5 10 10 10s10-4.5 10-10v-50.5c0-5.5-4.5-10-10-10zm132.3-295.8c2.6 0 5.1-1 7-2.9l41.3-41.3c3.9-3.9 3.9-10.2 0-14.1-3.9-3.9-10.2-3.9-14.1 0l-41.3 41.3c-3.9 3.9-3.9 10.2 0 14.1 2 1.9 4.5 2.9 7.1 2.9zm-271.7-2.9c2 1.9 4.5 2.9 7.1 2.9 2.6 0 5.1-1 7-2.9 3.9-3.9 3.9-10.2 0-14.1L77.4 63.4c-3.9-3.9-10.2-3.9-14.1 0-3.9 3.9-3.9 10.2 0 14.1l41.3 41.3zm278.7 250.5c-3.9-3.9-10.2-3.9-14.1 0-3.9 3.9-3.9 10.2 0 14.1l41.3 41.3c2 1.9 4.5 2.9 7.1 2.9 2.5 0 5.1-1 7-2.9 3.9-3.9 3.9-10.2 0-14.1l-41.3-41.3zm-278.7 0l-41.3 41.3c-3.9 3.9-3.9 10.2 0 14.1 2 1.9 4.5 2.9 7.1 2.9 2.6 0 5.1-1 7-2.9l41.3-41.3c3.9-3.9 3.9-10.2 0-14.1s-10.2-3.9-14.1 0zM478 234h-50.5c-5.5 0-10 4.5-10 10s4.5 10 10 10H478c5.5 0 10-4.5 10-10s-4.5-10-10-10zM70.5 244c0-5.5-4.5-10-10-10H10c-5.5 0-10 4.5-10 10s4.5 10 10 10h50.5c5.5 0 10-4.5 10-10z"/><text y="291.921" x="147.344" style="line-height:1.25;-inkscape-font-specification:Calibri" font-size="40" font-family="Calibri" letter-spacing="1" stroke="#000" stroke-width="6" stroke-linecap="round"><tspan dx="5" y="291.921" x="147.344" font-size="144" letter-spacing="5">UV</tspan></text></svg>