<svg xmlns="http://www.w3.org/2000/svg" viewBox="0 0 471.1 471.1"><path d="M217.525 334V56.9c0-5.5-4.5-10-10-10s-10 4.5-10 10V334c-21.4 4.6-37.5 23.7-37.5 46.4 0 26.2 21.3 47.5 47.5 47.5s47.5-21.3 47.5-47.5c0-22.7-16.1-41.8-37.5-46.4zm-10 73.9c-15.2 0-27.5-12.3-27.5-27.5s12.3-27.5 27.5-27.5 27.5 12.3 27.5 27.5-12.3 27.5-27.5 27.5z"/><path d="M376.377 49.639c-.703 0-1.29.023-1.758.07-.445.023-.82.082-1.125.176a1.677 1.677 0 00-.668.386c-.14.165-.258.375-.351.633l-15.258 42.258c-.188.516-.293.938-.317 1.266 0 .304.082.539.246.703.188.164.493.27.915.316.445.07 1.007.106 1.687.106.656 0 1.184-.024 1.582-.07.422-.047.738-.118.95-.212a1.62 1.62 0 00.527-.386c.117-.164.21-.352.28-.563l3.727-10.933h18.915l3.902 11.074c.094.21.187.387.281.527.117.14.281.258.492.352.235.07.563.117.985.14.445.047 1.03.07 1.757.07.727 0 1.301-.023 1.723-.07.445-.046.762-.152.95-.316.187-.164.269-.398.245-.703 0-.328-.093-.75-.28-1.266L380.524 50.94a1.7 1.7 0 00-.386-.632c-.164-.188-.399-.328-.703-.422-.305-.094-.704-.153-1.196-.176a20.284 20.284 0 00-1.863-.07zm27.332 0c-.82 0-1.465.023-1.934.07-.468.047-.796.164-.984.352-.187.164-.246.41-.176.738.094.305.281.715.563 1.23l11.847 20.215-12.41 20.918c-.304.516-.492.926-.562 1.23-.047.305.011.551.176.739.187.164.503.27.949.316.445.07 1.054.106 1.828.106.703 0 1.265-.024 1.687-.07.422-.024.75-.07.985-.141.258-.094.457-.211.597-.352.141-.14.27-.316.387-.527l10.23-18.106 10.126 18.106c.093.21.199.387.316.527.14.117.328.223.562.317.258.093.598.152 1.02.175.422.047 1.008.07 1.758.07.797 0 1.43-.034 1.898-.105.492-.047.844-.152 1.055-.316.21-.188.281-.434.21-.738-.046-.305-.222-.715-.526-1.23l-12.305-21.06 11.812-20.074c.282-.515.446-.925.493-1.23.046-.328-.036-.574-.247-.738-.187-.165-.515-.27-.984-.317-.445-.07-1.031-.105-1.758-.105-.68 0-1.218.023-1.617.07-.398.023-.715.082-.95.176a.956.956 0 00-.491.351c-.118.14-.235.305-.352.493l-9.703 17.015-9.773-17.015c-.141-.188-.27-.352-.387-.493-.117-.164-.305-.28-.563-.351-.257-.094-.609-.153-1.054-.176-.446-.047-1.02-.07-1.723-.07zm-102.09.21c-.633 0-1.207.212-1.723.633-.515.422-.773 1.125-.773 2.11v41.836c0 .187.035.351.106.492.093.14.246.258.457.351.234.07.539.13.914.176.375.07.843.106 1.406.106.586 0 1.066-.035 1.441-.106.375-.047.68-.105.914-.176.235-.093.399-.21.493-.351a.867.867 0 00.14-.492V54.807h.035l15.504 39.797c.047.14.13.269.246.386.141.117.328.223.563.317.234.07.527.129.879.175.351.047.773.07 1.265.07.47 0 .868-.023 1.196-.07.351-.023.644-.07.879-.14.257-.094.445-.2.562-.317.14-.117.246-.257.316-.421l16.208-39.797h.07v39.62c0 .188.047.352.14.493.094.14.247.258.457.351.235.07.54.13.915.176.398.07.867.106 1.406.106.586 0 1.054-.035 1.406-.106.375-.047.68-.105.914-.176.234-.093.399-.21.492-.351a.867.867 0 00.14-.492V52.592c0-.492-.07-.903-.21-1.23a2.221 2.221 0 00-.563-.844 1.683 1.683 0 00-.808-.493 2.719 2.719 0 00-.985-.175h-3.832c-.585 0-1.101.07-1.546.21a3.245 3.245 0 00-1.23.633c-.352.282-.68.668-.985 1.16a9.883 9.883 0 00-.844 1.793l-13.71 32.836h-.177l-13.183-32.941a8.33 8.33 0 00-.739-1.652 3.861 3.861 0 00-1.054-1.16 4.256 4.256 0 00-1.477-.668c-.562-.141-1.219-.211-1.969-.211zm74.547 6.047h.035l7.945 22.676h-15.82z" aria-label="MAX" stroke="#000" stroke-width="5"/><path d="M263.525 306V56c0-30.9-25.3-56-56.3-56-31 0-56.3 25.1-56.3 56v250c-29.9 23.6-42.3 63.4-31 100.8 5.8 18.7 17.2 34.7 33 46.4 15.8 11.7 34.6 17.9 54.3 17.9 19.7 0 38.5-6.2 54.3-17.9 15.8-11.7 27.2-27.7 33-46.5 11.3-37.3-1.1-77.1-31-100.7zm12 94.9c-9.4 30-36.8 50.2-68.3 50.2s-58.9-20.1-68.2-50.1c-9.3-30.8 1.8-63.6 27.6-81.7 2.7-1.9 4.3-4.9 4.3-8.2v-255c0-19.5 16.6-36 36.3-36 19.7 0 36.3 16.5 36.3 36v255c0 3.3 1.6 6.3 4.3 8.2 25.9 18 37 50.9 27.7 81.6zm-173.2-111.1h-57.7c-5.5 0-10 4.5-10 10s4.5 10 10 10h57.7c5.5 0 10-4.5 10-10s-4.5-10-10-10zm0-138.8h-35c-5.5 0-10 4.5-10 10s4.5 10 10 10h35c5.5 0 10-4.5 10-10s-4.5-10-10-10zm0-46.8h-57.7c-5.5 0-10 4.5-10 10s4.5 10 10 10h57.7c5.5 0 10-4.5 10-10s-4.5-10-10-10zm0-46h-35c-5.5 0-10 4.5-10 10s4.5 10 10 10h35c5.5 0 10-4.5 10-10s-4.5-10-10-10zm0-46h-57.7c-5.5 0-10 4.5-10 10s4.5 10 10 10h57.7c5.5 0 10-4.5 10-10s-4.5-10-10-10zm0 230.7h-35c-5.5 0-10 4.5-10 10s4.5 10 10 10h35c5.5 0 10-4.5 10-10s-4.5-10-10-10zm0-45.9h-57.7c-5.5 0-10 4.5-10 10s4.5 10 10 10h57.7c5.5 0 10-4.5 10-10s-4.5-10-10-10z"/></svg>