<svg xmlns="http://www.w3.org/2000/svg" viewBox="0 0 487.912 487.912"><path d="M203.206 304.912c2.6 0 5.2-1 7.1-3l20.3-20.6c4 1.9 8.5 3 13.2 3 16.9 0 30.7-13.7 30.7-30.6 0-4.6-1.1-8.9-2.9-12.7 0 0 .1 0 .1-.1l23.5-23.9v6.2c0 5.5 4.5 10 10 10s10-4.5 10-10v-30.5c0-5.5-4.4-10-10-10h-30.7c-5.5 0-10 4.5-10 10s4.5 10 10 10h6.7l-23.7 24.2-.1.1c-4.1-2-8.7-3.1-13.5-3.1-16.9 0-30.7 13.4-30.7 29.8 0 4.9 1.2 9.5 3.2 13.6l-20.3 20.6c-3.9 3.9-3.8 10.3.1 14.1 1.9 1.9 4.5 2.9 7 2.9zm40.7-60.999c5.8 0 10.7 4.5 10.7 9.8 0 6-4.7 10.6-10.7 10.6s-10.7-4.7-10.7-10.6c0-5.3 4.9-9.8 10.7-9.8z"/><path d="M292.206 66.213c6.4-19.3.5-41.1-15.8-54.2-18.1-16-46-16-64.9-.1-16.3 13.1-22.3 35-15.9 54.3-95.2 21.8-166.4 106.8-166.4 208.1 0 117.8 96.3 213.6 214.7 213.6s214.8-95.8 214.8-213.6c0-101.301-71.3-186.301-166.5-208.1zm-68.1-38.8c.1-.1.2-.1.2-.2 11.5-9.7 28.3-9.8 39-.2.1.1.3.2.4.4 10.5 8.4 13.8 23 8.4 35.1-9.2-1.2-18.7-1.8-28.2-1.8s-19 .6-28.2 1.8c-5.5-12.1-2.2-26.701 8.4-35.1zm19.8 440.499c-78.3 0-146-46.2-176.9-112.7h353.7c-30.8 66.5-98.5 112.7-176.8 112.7zm-86.4-294.9c50.1-41.3 122.8-41.3 172.9 0 47.7 39.3 60.4 106.7 31.1 162.2h-235.2c-29.2-55.499-16.6-122.9 31.2-162.2zm270.5 162.3h-44.3c12.1-27.4 16.2-57.8 11.3-87.3-5.8-35.5-24.3-67.6-51.9-90.4-57.5-47.3-140.8-47.3-198.3 0-27.6 22.8-46.1 54.9-51.9 90.4-4.9 29.5-.8 59.9 11.3 87.3h-45.2c-6.4-19.2-9.9-39.6-9.9-60.9.1-106.8 87.4-193.7 194.8-193.7s194.8 86.8 194.8 193.6c0 21.3-3.5 41.8-9.9 61h-.8z"/></svg>