<svg xmlns="http://www.w3.org/2000/svg" viewBox="0 0 56.966 56.966"><path d="M54.294 51.003L41.23 37.413a22.093 22.093 0 005.2-14.248C46.43 10.943 36.485 1 24.264 1 12.043 1 2.1 10.943 2.1 23.165c0 12.221 9.943 22.164 22.165 22.164a21.926 21.926 0 0012.698-4.012L50.13 55.01a2.859 2.859 0 002.083.887c.75 0 1.462-.286 2.003-.808a2.894 2.894 0 00.08-4.086zm-30.03-44.22a16.4 16.4 0 0116.383 16.382 16.4 16.4 0 01-16.382 16.382A16.4 16.4 0 017.882 23.165 16.4 16.4 0 0124.265 6.782z"/><path aria-label="-" d="M17.637 21.098a.885.885 0 00-.81.45c-.184.302-.274.835-.274 1.598 0 .763.09 1.304.273 1.627.18.3.45.45.811.45h12.587a.861.861 0 00.785-.45c.18-.302.27-.845.27-1.627a4.399 4.399 0 00-.09-.965 1.67 1.67 0 00-.212-.633.66.66 0 00-.331-.36.933.933 0 00-.422-.09z"/></svg>