<svg viewBox="0 0 478.1 478.1" xmlns="http://www.w3.org/2000/svg"><path d="M113.47 404.66c-2.405-4.715-8.178-6.639-12.893-4.233l-15.298 7.697v-18.57c0-5.291-4.33-9.62-9.621-9.62s-9.622 4.329-9.622 9.62v18.57l-15.298-7.697c-4.714-2.406-10.487-.481-12.893 4.233-2.405 4.715-.48 10.487 4.234 12.893l12.219 6.158-12.22 6.157c-4.714 2.406-6.638 8.179-4.233 12.893 1.732 3.368 5.1 5.292 8.563 5.292 1.444 0 2.887-.288 4.33-1.058l15.298-7.697v18.666c0 5.292 4.33 9.621 9.621 9.621s9.622-4.33 9.622-9.621v-18.57l15.298 7.698c1.347.673 2.886 1.058 4.33 1.058 3.56 0 6.927-1.924 8.562-5.292 2.406-4.81.481-10.584-4.233-12.989l-12.219-6.157 12.219-6.158c4.714-2.405 6.639-8.178 4.233-12.893zm104.58-24.15l-12.315-6.061 12.315-6.062c4.715-2.405 6.735-8.178 4.33-12.893-2.406-4.715-8.179-6.735-12.893-4.33l-15.78 7.794v-18.281c0-5.292-4.329-9.622-9.62-9.622s-9.622 4.33-9.622 9.622v18.28l-15.683-7.793c-4.715-2.405-10.487-.384-12.893 4.33-2.406 4.715-.385 10.487 4.33 12.893l12.314 6.062-12.315 6.061c-4.714 2.405-6.735 8.178-4.33 12.893 1.636 3.368 5.1 5.388 8.66 5.388 1.443 0 2.887-.289 4.234-.962l15.779-7.794v18.281c0 5.292 4.33 9.622 9.62 9.622s9.622-4.33 9.622-9.622v-18.28l15.78 7.793c1.346.673 2.79.962 4.233.962 3.56 0 6.927-1.924 8.659-5.388 2.31-4.714.385-10.487-4.426-12.893zm108.24 49.358l-12.219-6.158 12.219-6.157c4.715-2.406 6.639-8.179 4.233-12.893-2.405-4.715-8.178-6.64-12.893-4.234l-15.298 7.697v-18.569c0-5.291-4.33-9.621-9.621-9.621s-9.621 4.33-9.621 9.621v18.57l-15.298-7.698c-4.715-2.405-10.487-.48-12.893 4.234-2.406 4.714-.481 10.487 4.233 12.893l12.219 6.157-12.219 6.158c-4.715 2.405-6.639 8.178-4.233 12.893 1.732 3.368 5.099 5.292 8.563 5.292 1.443 0 2.886-.289 4.33-1.059l15.297-7.697v18.666c0 5.292 4.33 9.622 9.622 9.622s9.621-4.33 9.621-9.622v-18.569l15.298 7.697c1.347.674 2.887 1.059 4.33 1.059 3.56 0 6.927-1.924 8.563-5.292 2.501-4.81.577-10.584-4.234-12.989zm113.24-74.47c-2.405-4.715-8.178-6.639-12.893-4.233l-15.298 7.697V340.58c0-5.292-4.33-9.622-9.621-9.622s-9.622 4.33-9.622 9.622v18.28l-15.298-7.696c-4.714-2.406-10.487-.481-12.893 4.233-2.405 4.715-.48 10.487 4.234 12.893l12.219 6.158-12.22 6.157c-4.714 2.406-6.638 8.179-4.233 12.893 1.732 3.368 5.1 5.292 8.563 5.292 1.444 0 2.887-.288 4.33-1.058l15.298-7.697v18.28c0 5.293 4.33 9.622 9.621 9.622s9.622-4.33 9.622-9.621v-18.281l15.298 7.697c1.347.673 2.886 1.058 4.33 1.058 3.56 0 6.927-1.924 8.562-5.292 2.406-4.714.481-10.584-4.233-12.893l-12.219-6.157 12.219-6.158c4.715-2.405 6.639-8.178 4.233-12.893zM113.46 81.378c-2.405-4.714-8.178-6.639-12.893-4.233l-15.298 7.697v-18.57c0-5.291-4.33-9.62-9.621-9.62s-9.622 4.329-9.622 9.62v18.57l-15.298-7.697c-4.714-2.406-10.487-.481-12.893 4.233-2.405 4.715-.48 10.487 4.234 12.893l12.219 6.158-12.22 6.157c-4.714 2.406-6.638 8.179-4.233 12.893 1.732 3.368 5.1 5.292 8.563 5.292 1.444 0 2.887-.288 4.33-1.058l15.298-7.697v18.569c0 5.292 4.33 9.621 9.621 9.621s9.622-4.33 9.622-9.621v-18.57l15.298 7.698c1.347.673 2.886 1.058 4.33 1.058 3.56 0 6.927-1.924 8.562-5.292 2.406-4.714.481-10.487-4.233-12.893l-12.219-6.157 12.219-6.158c4.715-2.405 6.639-8.178 4.233-12.893zm32.328-11.257c1.636 3.368 5.1 5.388 8.66 5.388 1.443 0 2.886-.289 4.233-.962l15.779-7.793v18.28c0 5.292 4.33 9.622 9.621 9.622s9.622-4.33 9.622-9.621V66.754l15.779 7.793c1.347.673 2.79.962 4.233.962 3.56 0 6.927-1.924 8.66-5.388 2.405-4.714.48-10.487-4.33-12.893l-12.315-6.061 12.315-6.062c4.714-2.405 6.735-8.178 4.33-12.893-2.406-4.714-8.179-6.735-12.894-4.33l-15.779 7.794V17.395c0-5.292-4.33-9.622-9.621-9.622s-9.622 4.33-9.622 9.622v18.28l-15.779-7.793c-4.714-2.405-10.487-.384-12.893 4.33s-.384 10.487 4.33 12.893l12.315 6.062-12.315 6.061c-4.714 2.405-6.735 8.178-4.33 12.893zm180.5 36.465l-12.219-6.158 12.219-6.157c4.715-2.406 6.639-8.179 4.233-12.893-2.405-4.715-8.178-6.64-12.893-4.234l-15.298 7.697V66.272c0-5.291-4.33-9.621-9.621-9.621s-9.621 4.33-9.621 9.621v18.57l-15.298-7.698c-4.715-2.405-10.487-.48-12.893 4.234-2.406 4.714-.481 10.487 4.233 12.893l12.219 6.157-12.219 6.158c-4.714 2.405-6.639 8.178-4.233 12.893 1.732 3.368 5.099 5.292 8.563 5.292 1.443 0 2.886-.289 4.33-1.059l15.297-7.697v18.57c0 5.291 4.33 9.62 9.622 9.62s9.621-4.329 9.621-9.62v-18.57l15.298 7.697c1.347.674 2.887 1.059 4.33 1.059 3.56 0 6.927-1.924 8.563-5.292 2.501-4.714.577-10.487-4.234-12.893zm109.01-49.358l-12.219-6.158 12.219-6.157c4.715-2.406 6.639-8.179 4.233-12.893-2.405-4.715-8.178-6.64-12.893-4.234l-15.298 7.697v-18.28c0-5.292-4.33-9.622-9.621-9.622s-9.621 4.33-9.621 9.621v18.281L376.8 27.786c-4.715-2.405-10.487-.48-12.893 4.234-2.406 4.714-.481 10.487 4.233 12.893l12.219 6.157-12.219 6.158c-4.714 2.405-6.639 8.178-4.233 12.893 1.731 3.368 5.099 5.292 8.563 5.292 1.443 0 2.886-.289 4.33-1.059l15.297-7.697v18.281c0 5.292 4.33 9.622 9.622 9.622s9.621-4.33 9.621-9.622v-18.28l15.298 7.696c1.347.674 2.887 1.059 4.33 1.059 3.56 0 6.927-1.924 8.563-5.292 2.405-4.714.48-10.487-4.234-12.893zm-321.84 190.6c-2.405-4.714-8.178-6.639-12.893-4.233l-15.298 7.697v-18.57c0-5.291-4.33-9.62-9.621-9.62s-9.622 4.329-9.622 9.62v18.57l-15.298-7.697c-4.714-2.406-10.487-.481-12.893 4.233-2.405 4.715-.48 10.487 4.234 12.893l12.219 6.158-12.22 6.157c-4.714 2.406-6.638 8.179-4.233 12.893 1.732 3.368 5.1 5.292 8.563 5.292 1.444 0 2.887-.288 4.33-1.058l15.298-7.697v18.569c0 5.292 4.33 9.621 9.621 9.621s9.622-4.33 9.622-9.621v-18.57l15.298 7.698c1.347.673 2.886 1.058 4.33 1.058 3.56 0 6.927-1.924 8.562-5.292 2.406-4.714.481-10.487-4.233-12.893l-12.219-6.157 12.219-6.158c4.715-2.405 6.639-8.178 4.233-12.893zm32.328-11.257c1.636 3.368 5.1 5.388 8.66 5.388 1.443 0 2.886-.289 4.233-.962l15.779-7.794v18.281c0 5.292 4.33 9.622 9.621 9.622s9.622-4.33 9.622-9.622v-18.28l15.779 7.793c1.347.673 2.79.962 4.233.962 3.56 0 6.927-1.924 8.66-5.388 2.405-4.714.48-10.487-4.33-12.893l-12.315-6.061 12.315-6.062c4.714-2.405 6.735-8.178 4.33-12.893-2.406-4.714-8.179-6.735-12.894-4.33l-15.779 7.794v-18.281c0-5.292-4.33-9.622-9.621-9.622s-9.622 4.33-9.622 9.622v18.28l-15.779-7.793c-4.714-2.405-10.487-.384-12.893 4.33-2.405 4.715-.384 10.487 4.33 12.893l12.315 6.062-12.315 6.061c-4.715 2.405-6.735 8.178-4.33 12.893zm180.5 36.465l-12.219-6.158 12.219-6.157c4.715-2.406 6.639-8.179 4.233-12.893-2.405-4.715-8.178-6.64-12.893-4.234l-15.298 7.697v-18.569c0-5.291-4.33-9.621-9.621-9.621s-9.621 4.33-9.621 9.621v18.57l-15.298-7.698c-4.715-2.405-10.487-.48-12.893 4.234-2.406 4.714-.481 10.487 4.233 12.893l12.219 6.157-12.219 6.158c-4.714 2.405-6.639 8.178-4.233 12.893 1.732 3.368 5.099 5.292 8.563 5.292 1.443 0 2.886-.289 4.33-1.059l15.297-7.697v18.57c0 5.291 4.33 9.62 9.622 9.62s9.621-4.329 9.621-9.62v-18.57l15.298 7.697c1.347.674 2.887 1.059 4.33 1.059 3.56 0 6.927-1.924 8.563-5.292 2.501-4.714.577-10.487-4.234-12.893zm113.24-74.47c-2.405-4.714-8.178-6.639-12.893-4.233l-15.298 7.697v-18.281c0-5.292-4.33-9.622-9.621-9.622s-9.622 4.33-9.622 9.622v18.28l-15.298-7.696c-4.714-2.406-10.487-.481-12.893 4.233-2.405 4.715-.48 10.487 4.234 12.893l12.219 6.158-12.22 6.157c-4.714 2.406-6.638 8.179-4.233 12.893 1.732 3.368 5.1 5.292 8.563 5.292 1.444 0 2.887-.288 4.33-1.058l15.298-7.697v18.28c0 5.293 4.33 9.622 9.621 9.622s9.622-4.33 9.622-9.621v-18.281l15.298 7.697c1.347.673 2.886 1.058 4.33 1.058 3.56 0 6.927-1.924 8.562-5.292 2.406-4.81.481-10.584-4.233-12.893l-12.219-6.157 12.219-6.158c4.715-2.405 6.639-8.178 4.233-12.893z" fill="#fff" stroke="#0055d4" stroke-width="7"/></svg>