<svg version="1.1" viewBox="0 0 488 488" xmlns="http://www.w3.org/2000/svg">
 <g transform="matrix(1.1163 0 0 1.1163 -4.9395 -1.8957)" fill="#0055d4">
  <path d="m286.96 64.164c-55.946 0-107.54 32.233-133.82 82.912-10.628-3.423-21.934-5.324-32.562-5.324-62.034 0-112.57 50.868-112.57 113.34 0 62.469 50.536 113.34 112.57 113.34h166.39c83.291 0 151.02-68.269 151.02-152.14s-67.734-152.14-151.02-152.14zm0 285.24h-166.39c-51.405 0-93.245-42.31-93.245-94.32 0-52.011 41.84-94.322 93.245-94.322 10.822 0 23.093 2.567 33.722 7.036 4.928 1.997 10.533-.19 12.658-4.944 21.741-48.397 68.798-79.68 120.01-79.68 72.663 0 131.7 59.713 131.7 133.12s-59.039 133.12-131.7 133.12z"/>
  <path d="m109.6 356.92c-30.528-2.433-58.122-19.24-75.194-45.801-5.338-8.306-10.84-22.08-13.163-32.959-1.665-7.798-2.313-24.031-1.275-31.958 5.558-42.46 36.39-75.916 78.278-84.94 5.526-1.191 8.559-1.429 18.295-1.433 10.579-.004 12.379.16 19.24 1.765 4.164.974 9.842 2.66 12.617 3.749 6.278 2.46 10.354 2.624 13.688.55 1.896-1.178 3.175-3.07 6.82-10.093 14.952-28.81 36.08-50.02 63.448-63.699 19.212-9.602 38.299-14.091 59.88-14.085 21.871.006 40.234 4.268 59.99 13.923 27.42 13.4 48.921 34.705 62.931 62.356 10.208 20.149 14.923 40.114 14.923 63.202 0 12.757-1.253 23.237-4.121 34.472-10.223 40.047-37.034 73.167-73.732 91.08-13.648 6.663-24.909 10.218-40.434 12.767-8.087 1.328-9.5 1.348-102.2 1.464-51.699.064-96.695-.098-99.992-.36z"/>
 </g>
 <g transform="matrix(.50505 0 0 .50505 195.06 115.18)" fill="#ffd42a">
  <path d="m244 70.5c5.5 0 10-4.5 10-10v-50.5c0-5.5-4.5-10-10-10s-10 4.5-10 10v50.5c0 5.5 4.5 10 10 10zm0 347c-5.5 0-10 4.5-10 10v50.5c0 5.5 4.5 10 10 10s10-4.5 10-10v-50.5c0-5.5-4.5-10-10-10zm132.3-295.8c2.6 0 5.1-1 7-2.9l41.3-41.3c3.9-3.9 3.9-10.2 0-14.1s-10.2-3.9-14.1 0l-41.3 41.3c-3.9 3.9-3.9 10.2 0 14.1 2 1.9 4.5 2.9 7.1 2.9zm-271.7-2.9c2 1.9 4.5 2.9 7.1 2.9s5.1-1 7-2.9c3.9-3.9 3.9-10.2 0-14.1l-41.3-41.3c-3.9-3.9-10.2-3.9-14.1 0s-3.9 10.2 0 14.1zm278.7 250.5c-3.9-3.9-10.2-3.9-14.1 0s-3.9 10.2 0 14.1l41.3 41.3c2 1.9 4.5 2.9 7.1 2.9 2.5 0 5.1-1 7-2.9 3.9-3.9 3.9-10.2 0-14.1zm-278.7 0-41.3 41.3c-3.9 3.9-3.9 10.2 0 14.1 2 1.9 4.5 2.9 7.1 2.9s5.1-1 7-2.9l41.3-41.3c3.9-3.9 3.9-10.2 0-14.1s-10.2-3.9-14.1 0zm373.4-135.3h-50.5c-5.5 0-10 4.5-10 10s4.5 10 10 10h50.5c5.5 0 10-4.5 10-10s-4.5-10-10-10zm-407.5 10c0-5.5-4.5-10-10-10h-50.5c-5.5 0-10 4.5-10 10s4.5 10 10 10h50.5c5.5 0 10-4.5 10-10z" stroke="#ffd42a" stroke-width="7"/>
  <circle cx="243.76" cy="243.76" r="132.41"/>
 </g>
 <g transform="matrix(.84068 0 0 .84068 16.382 44.962)" fill="#fff" stroke-width=".37875">
  <path d="m122.68 326.67v-104.95c0-2.0831-1.7043-3.7875-3.7875-3.7875-2.0831 0-3.7875 1.7044-3.7875 3.7875v104.95c-8.1052 1.7422-14.203 8.9763-14.203 17.574 0 9.9232 8.0673 17.99 17.99 17.99 9.9232 0 17.99-8.0673 17.99-17.99 0-8.5975-6.0978-15.832-14.203-17.574zm-3.7875 27.989c-5.7569 0-10.416-4.6586-10.416-10.416s4.6586-10.416 10.416-10.416 10.416 4.6586 10.416 10.416-4.6586 10.416-10.416 10.416z"/>
  <path d="m140.1 316.06v-94.687c0-11.703-9.5823-21.21-21.323-21.21-11.741 0-21.323 9.5065-21.323 21.21v94.687c-11.324 8.9384-16.021 24.013-11.741 38.178 2.1967 7.0826 6.5144 13.142 12.499 17.574 5.9842 4.4313 13.105 6.7796 20.566 6.7796s14.582-2.3482 20.566-6.7796c5.9842-4.4313 10.302-10.491 12.499-17.612 4.2798-14.127-.41662-29.201-11.741-38.14zm4.545 35.943c-3.5602 11.362-13.938 19.013-25.868 19.013-11.93 0-22.308-7.6128-25.83-18.975-3.5223-11.665.68176-24.088 10.453-30.944 1.0226-.7196 1.6286-1.8558 1.6286-3.1057v-96.58c0-7.3856 6.2872-13.635 13.748-13.635s13.749 6.2493 13.749 13.635v96.58c0 1.2499.60598 2.3861 1.6286 3.1057 9.8095 6.8174 14.014 19.278 10.491 30.906zm-65.599-42.079h-21.854c-2.0831 0-3.7875 1.7044-3.7875 3.7875s1.7044 3.7875 3.7875 3.7875h21.854c2.0831 0 3.7875-1.7044 3.7875-3.7875s-1.7044-3.7875-3.7875-3.7875zm0-52.57h-13.256c-2.0831 0-3.7875 1.7044-3.7875 3.7875 0 2.0831 1.7044 3.7875 3.7875 3.7875h13.256c2.0831 0 3.7875-1.7044 3.7875-3.7875 0-2.0831-1.7044-3.7875-3.7875-3.7875zm0-17.725h-21.854c-2.0831 0-3.7875 1.7044-3.7875 3.7875s1.7044 3.7875 3.7875 3.7875h21.854c2.0831 0 3.7875-1.7044 3.7875-3.7875s-1.7044-3.7875-3.7875-3.7875zm0-17.422h-13.256c-2.0831 0-3.7875 1.7044-3.7875 3.7875 0 2.0831 1.7044 3.7875 3.7875 3.7875h13.256c2.0831 0 3.7875-1.7043 3.7875-3.7875 0-2.0831-1.7044-3.7875-3.7875-3.7875zm0-17.422h-21.854c-2.0831 0-3.7875 1.7044-3.7875 3.7875s1.7044 3.7875 3.7875 3.7875h21.854c2.0831 0 3.7875-1.7044 3.7875-3.7875s-1.7044-3.7875-3.7875-3.7875zm0 87.377h-13.256c-2.0831 0-3.7875 1.7044-3.7875 3.7875s1.7044 3.7875 3.7875 3.7875h13.256c2.0831 0 3.7875-1.7044 3.7875-3.7875s-1.7044-3.7875-3.7875-3.7875zm0-17.384h-21.854c-2.0831 0-3.7875 1.7044-3.7875 3.7875 0 2.0831 1.7044 3.7875 3.7875 3.7875h21.854c2.0831 0 3.7875-1.7043 3.7875-3.7875 0-2.0831-1.7044-3.7875-3.7875-3.7875z"/>
 </g>
</svg>
