<svg version="1.1" viewBox="0 0 512 512" xmlns="http://www.w3.org/2000/svg">
 <g id="pwb" fill="#f60" stroke-width="6.6332" aria-label="pwb">
  <path id="letter-p" d="m94.963 210.67c2.2455-3.109 5.4408-5.484 9.5868-7.125v-.778l6.089-4.275.518.777v-1.295l1.037-.519.907.519 8.939-6.737.518.648 2.98-2.98 3.627-.518.648-1.296 4.664-1.943h7.514l3.368-1.037c4.492 2.851 6.737 5.873 6.737 9.069l.518.518 1.296 8.421h-.518c-.778 1.641-1.382 3.067-1.814 4.276-.346 1.123-1.339 3.325-2.98 6.607.95 1.641 1.727 2.807 2.332 3.498l-2.332 1.296 2.332 3.757-1.295 11.919v5.311l-2.332 5.571v4.275l-2.98 7.126c.345.345.518.691.518 1.036 0 .778-.605 2.03-1.814 3.757h.518l-5.311 13.215-8.421 9.069-1.166 2.98-4.146 1.296c-.777 1.036-1.598 2.029-2.461 2.979-.864.95-1.987 2.03-3.369 3.239-1.295 1.123-2.504 1.771-3.627 1.944l-4.405.777-6.607 7.255-6.0892 1.943c-.8637.259-1.7705.864-2.7206 1.814l-3.3684 3.628-11.401 1.554-10.883 8.551h-6.7367l-2.8502 9.587-1.8138 7.903-.5182 6.089c-2.5047 6.132-3.9298 9.76-4.2752 10.883l-2.4615 8.291-1.8138 4.146-.5182 6.089c-1.8137 2.85-3.2388 5.83-4.2752 8.939-1.0365 3.11-2.1161 5.874-3.2389 8.292-1.0364 2.505-1.5547 4.405-1.5547 5.7l-3.6274 4.664-2.4615 8.551-5.5708 7.644-4.7935 13.862-4.7934 4.793-1.5547 7.644c0 .086-.5182.95-1.5547 2.591-1.0364 1.641-2.0729 2.807-3.1092 3.498-1.1228.691-2.4616 1.036-4.0162 1.036l-2.2024-.259-5.8299-7.125c2.2456-.605 4.2752-3.239 6.089-7.903 1.9001-1.382 2.9797-2.98 3.2389-4.794.77731-2.504 1.7274-3.757 2.8502-3.757h.5182c1.2955-.95 1.9432-1.727 1.9432-2.332v-.518l-1.0363-1.425c1.7273-3.196 2.7638-4.88 3.1092-5.053l.5182-2.591c.1728-.691 1.5979-2.634 4.2753-5.83.6046-5.7 1.7705-9.716 3.4979-12.049 1.641-2.332 2.8502-4.966 3.6275-7.903h1.0364l1.9433-6.607c2.0728-1.814 3.1092-3.584 3.1092-5.312v-3.757l1.166.648-1.166-5.312c0-1.122.3887-2.375 1.166-3.757l1.2955-.518c1.4682-5.441 2.4183-10.062 2.8502-13.862l2.9797-3.109-.5182-3.498c0-.087.2159-.864.6478-2.332.5182-1.382.9068-4.06 1.166-8.033h1.0363c1.2956-3.368 1.9433-5.916 1.9433-7.643 0-2.246.0864-3.628.2591-4.146.1728-.518 1.2956-2.159 3.3684-4.923l1.166-9.846 1.8138-8.421 1.2954-26.3 1.8138-3.628-3.1092-6.219v-5.83l-.5183-5.052 1.0364-7.126-2.9797-13.215v-5.311l-2.8502-.778c-.2591-.086-2.6342 1.944-7.1254 6.089l-3.7571-.518-4.7934 6.607c-.5182.346-1.1228.519-1.8138.519-1.2955 0-2.0728-.864-2.332-2.591-.1727-1.814-.6477-4.146-1.425-6.996 1.2955-.519 2.0728-1.296 2.3319-2.332l1.4251.518c.7773-3.541 2.807-6.392 6.089-8.551l10.105-6.607.5182-1.814h3.1093l2.9798-3.498c1.9001 0 3.1524-.95 3.757-2.85l.5182.518v-4.275c2.4183-1.641 3.6275-3.844 3.6275-6.608h.5182l6.089-6.089h1.166c2.7638 0 4.6208-.993 5.5708-2.979l2.8502-.519c3.1956 0 4.9662.346 5.3116 1.037 1.9002 2.936 3.5843 5.139 5.0526 6.607l-1.8138 3.757 1.8138 4.275-6.6072 20.47c1.2091 1.21 1.9865 1.814 2.3319 1.814.7774 0 1.166-.432 1.166-1.295l4.7935-6.349c1.7273-2.159 3.282-3.238 4.6639-3.238zm27.595 31.352c-.173-1.123-.648-3.023-1.425-5.7-.778-2.764-1.166-4.967-1.166-6.608l.777-4.664v-5.83c.518-1.641.777-3.152.777-4.534l-.259-2.203c0-2.072-.95-3.109-2.85-3.109l-1.166.518-3.627 5.053c-.605.259-1.209.691-1.814 1.296-.605.518-2.462 1.597-5.571 3.239-3.023 1.554-5.527 3.109-7.5139 4.664-1.9865 1.468-3.6707 3.152-5.0526 5.052l-10.494 15.287c-.9501 1.555-1.9434 2.678-2.9798 3.369l-4.5344 3.109-.5182 2.98h-.7773c0 1.813.4318 3.411 1.2955 4.793l-2.9798 6.089-1.2955 13.733-5.3116 3.757c-.1727.864-.2591 2.03-.2591 3.498 0 2.16.4318 4.017 1.2955 5.571-.6909 1.468-1.0364 3.023-1.0364 4.664 0 1.987.7773 2.98 2.332 2.98 1.9865 0 4.7503-2.203 8.2914-6.607 1.7273 1.209 3.3252 1.813 4.7934 1.813.9501 0 1.7274-.302 2.332-.906.6909-.691 2.3751-1.814 5.0525-3.369l-.5182-.518h1.5547l-.5182-.518 4.2752-1.296v-.518h1.2955l2.4615-1.943v-.519h1.0364v-.518l3.7572-.777c.777-3.196 3.152-5.571 7.125-7.126.432-.691 1.209-1.338 2.332-1.943l2.462-4.664c1.813-5.614 3.67-10.062 5.57-13.344l-.777-4.275 2.332-4.146-.518-3.498z"/>
  <path id="letter-w" d="m374.41 144.86 5.83 1.296v1.166l1.814-.648 3.368 2.98c.604.518 1.252 1.597 1.943 3.239l3.757-1.426.518 2.462 2.462 3.627.777 8.551c-2.245 3.023-4.102 5.225-5.571 6.607h2.332l.778 2.462-1.814 2.332 1.814 1.036c-2.419 2.764-3.628 4.448-3.628 5.053l-2.979.518v2.98l-2.332 4.793h-1.944c-1.122 1.21-2.548 2.419-4.275 3.628l-.518 4.275-1.814 2.332-1.814-.518-.518 3.498-3.239 3.757v-.518c-3.541 3.973-5.743 6.175-6.607 6.607l.777 1.555-2.332 1.295-1.295 2.073c-.432.605-1.857 1.684-4.276 3.239l-2.072 4.275c-.519 1.037-1.901 2.462-4.146 4.276v2.332l-21.377 21.765-7.255 9.587c-2.505 1.813-4.189 3.843-5.052 6.089-.346 0-2.116 1.77-5.312 5.312l-2.332 4.534c-.346.691-1.382 1.684-3.109 2.98l-5.442 4.146c-.345 3.454-.69 6.002-1.036 7.643h-1.814l-.777 1.425-2.461-1.425-7.126 3.757h-1.814l-1.166 3.498-2.332-1.036v-1.425l-2.332-.518.519 1.295-4.276 1.684-3.757-8.291-2.332-1.296.778-4.275-2.591-4.793.777-3.628 1.036-1.036v-2.462l1.296-5.571c-2.073-2.504-3.109-5.527-3.109-9.069l.777-6.607-5.571-5.312-4.793-6.607-1.037-4.793v-.778l-2.461-3.498h-1.296l-2.461 6.737v7.126l-19.304 17.49-1.555 3.238c-.518 1.037-1.77 2.505-3.757 4.405l-.518-.518-1.295 2.98-1.425.777 1.943 2.462-1.943 1.036-1.037 7.903-5.311 1.036-6.09 7.515-3.109 2.85h-2.461l-1.037 2.98c-2.159-1.037-4.016-3.801-5.57-8.292-2.591-.518-4.189-1.123-4.794-1.814.691-2.159 2.116-4.189 4.275-6.089l-.518-2.461 2.332-4.146.518-12.049h-1.813l2.591-1.296c-1.9-4.664-3.11-8.464-3.628-11.401.605-.259 1.382-2.634 2.332-7.125-2.418-4.664-5.052-8.465-7.902-11.401l-1.037-5.571 1.037-1.943v-2.332l1.813-2.98-1.036-4.664-3.498-4.016c-.518-.519-.95-1.253-1.296-2.203l-1.295-3.627-3.757 1.295-.518 1.296h-3.498l-1.296-4.146 3.757-4.275 4.794-8.551 2.332-1.295-.519-.519h1.555v-.518l3.239-.518 5.312-5.571h4.275c.864-.432 2.073-1.598 3.627-3.498v1.036l3.498-1.813 4.276.777h4.793v3.498l1.296 4.794-1.296 3.627.777 1.296-1.425.647-.518 4.664.518 4.794-2.332 3.757.518 3.498v2.332l-1.813.777-1.037 2.462.518 7.643-.518 3.239v7.644l-.518.518-.907 6.089 1.943 4.276v4.793l1.296 1.296 1.036 5.83 3.239 1.295c1.728-3.368 3.023-5.139 3.887-5.311v-2.592l1.943 1.814 1.296-2.332v-1.943l1.813-.518 1.166-2.332 2.332-1.296-.518-1.684c1.987-.432 3.757-1.209 5.312-2.332l1.295-3.239v-1.814l.519-1.554 1.295.518-1.295-2.98h2.461l2.332-2.591 7.385-10.105c1.9-1.037 3.325-1.641 4.275-1.814v-1.943h1.036v-2.332l.518.518v-2.332l3.757-1.684 7.774-10.883.777.518.518-1.814 2.332-.518 1.296-1.814.647.518 1.037-4.275 6.607-5.312h2.332v1.296l2.721 3.498h1.036l1.814-1.036v-.778l4.275 1.814-1.296 3.757-2.979 1.814h-2.851l-1.295 2.85 7.903 1.943-1.814 2.332-2.462.519-3.627 3.757.518 6.607v2.462l.777 2.85-1.295 3.757 3.627 11.401-.777 3.757 3.239 3.887 3.368 11.66.777 5.311-.777 3.757 1.943 2.332 3.11-.777c3.023-4.405 4.62-6.78 4.793-7.125h1.555l.907-.519h1.813l.519-1.813.518 2.332v-5.312l6.089-3.757 5.312-7.126 8.68-9.975c.777-.95 2.332-2.03 4.664-3.239v-1.944l4.145-3.627.519-1.684.906.518.519-1.814c2.245-1.295 4.016-2.72 5.311-4.275l7.903-9.458 4.793-4.793v-.518l1.296-1.944 2.98-3.109c1.9-2.764 3.282-4.362 4.146-4.793l1.166-3.498 1.813-1.814 4.794-7.126v-5.571l1.295-3.757-7.125-4.016-3.757.518-1.296-1.295-.518 1.295-3.368-.259c-.95-.172-3.196-1.123-6.737-2.85l-1.814 1.296-1.943-.519-1.296 1.814h-1.554l-5.053 4.016-2.461-1.036-3.369 3.628h-3.239l-1.036-2.592 4.275-1.554 2.332-7.514 1.037-.519 4.275-7.643 9.846-4.276 10.105-1.813 1.814-1.296h2.461l4.146-2.461z"/>
  <path id="letter-b" d="m449.42 60 4.146 1.2955.518 2.332v1.9433l1.166 2.8502-1.166 1.2955.518 3.498-2.332 3.2389v3.3684l-2.332.5182.518 5.0526-3.498 4.0162-6.607 16.972-4.275 16.972-1.814 5.312-.518-1.296-1.425 7.903-.518-.518 1.166 11.401-2.462 3.498v2.591l1.296 2.979-1.296.519-1.036-1.037.518 3.369-.518 1.943-1.296 2.591c-.345.691-.993 3.628-1.943 8.81l-.518.518 3.757 3.757-.518 2.85c-1.814.691-3.498 2.116-5.053 4.276h2.332v.777h2.721l4.793 1.554c3.541-1.9 6.521-2.85 8.939-2.85l5.312.518 3.757-.518.518 1.296 4.275-.777.519 1.295 4.793-1.814 3.628 1.296-.519.518h1.944l5.83-3.627 2.331.777v-1.425h7.515l11.4 2.98 2.332 3.238.519-.906c3.541.777 7.168 2.029 10.883 3.757l.518 1.295 3.757 2.98-3.757 10.364-1.037 1.555h-1.813l-.519 1.813v5.571l-.907-1.295-.518 2.461-3.627 1.814-1.166 5.312-3.628 3.109.778 1.166h-1.296l.518.518-1.943 1.296-.518 2.332c-2.418.863-4.966 4.318-7.644 10.364l-1.295-.778.518 1.296-2.462.518-.518 2.462-1.295-.519-.518 2.332-3.498 2.98v1.296l-1.296 2.332-1.814-.518.778 1.036-3.757.907v1.555l-4.794 3.757.518 1.295-1.295 1.555h-1.555l-.777-1.037-1.037 1.814h-1.425l.778 1.684-1.814.778-1.296 3.368-1.036.778v1.166h-2.462l-1.295 2.332-1.037-.519c-1.209 3.023-2.634 5.053-4.275 6.089v1.037h-1.295l.518 1.943-1.555-1.166-.777 1.684h-1.943l-1.037 4.146-1.814-.518-1.166 2.461c-3.195 1.728-5.052 2.937-5.57 3.628l.647 1.684h-1.166v1.296h-1.813c-1.728 1.382-2.98 2.159-3.757 2.332l-.519-.519-2.332 2.462c-2.245 1.468-4.016 2.893-5.311 4.275l-3.239-.648-8.162 6.478v1.296h-1.943c-3.369 3.541-6.003 5.743-7.903 6.607l-.518 1.296-1.296.518-1.166 2.98-1.295-1.037-2.85 2.332-.518-.777-1.425 4.275-2.332-3.498-4.794-.777-2.332.777-1.943-1.814 2.461-4.275 2.85-1.296 2.721.778 3.887-4.794v-3.757l1.943-1.814 1.295-4.793 2.98-2.98c1.209-1.209 2.03-2.246 2.462-3.109l1.684-4.276 2.461-1.554-1.943-1.296 2.462-2.461-.519-3.628c0-3.714.778-7.082 2.332-10.105l-.518-1.295 4.275-4.276v-4.275l-1.295-3.498 1.295-3.628 1.814-13.344c-1.382-2.072-2.159-3.627-2.332-4.664l2.332-2.979-.777-3.239.777-2.85-.777-2.462-.518-8.421.518-15.158c1.382-1.555 2.202-3.325 2.461-5.312h1.814v-2.85l1.296-1.425-1.296-.518 1.296-1.296-.519-1.036v-3.757l-.777-1.037c1.123-2.504 2.548-4.966 4.275-7.384l-1.943-2.462.777-1.813 1.685-1.037.777.518 1.036-2.461-2.85-1.814.518-5.83 1.814-2.332-1.295-3.757c1.295-4.578 2.331-7.428 3.109-8.551l-.778-4.145 2.721-7.256-.907-3.627v-2.98l.907-1.295-1.943-2.462.518-5.182c1.036-1.814 2.03-4.491 2.98-8.033l-1.037-2.332-3.239-1.684-.518-3.627-5.311.518-2.332 3.109c-1.296 2.332-2.678 4.232-4.146 5.701-1.382 1.468-2.678 3.109-3.887 4.923h-1.036l-4.275 1.943-6.608-1.166-2.331 1.166-2.592-1.684c-.777-.518-2.418-2.548-4.923-6.089l3.239.518.518-5.312 15.676-12.696c2.246-.5182 3.671-.95 4.276-1.2955l7.902-5.3117 2.332-.5182c1.814-1.7274 2.807-3.1525 2.98-4.2753l3.757-2.332 4.664-6.2186 8.55-8.9393 4.017-.5182.777-2.4615h2.332c2.764-1.4683 4.707-2.2456 5.83-2.332zm14.251 144.58-1.037.518-3.239-.518-1.813.518.777.778-1.814.518-.518 1.036-.777-1.555-.648 1.037-2.85-1.037-4.794 1.555c-.777-.691-2.029-1.209-3.757-1.555-3.109 1.814-5.139 2.807-6.089 2.98-.259 1.641-1.209 2.85-2.85 3.628l-.518-.778-1.425 1.944-.518-1.166-.519.518-2.332-2.332h-1.295l-.648-1.296h-2.332c-.777 3.196-2.03 6.176-3.757 8.94l2.98 5.57-2.98 12.049 1.943 3.758c.691 1.381 1.037 3.757 1.037 7.125l-.519 5.182.519 3.239-3.239 2.332v16.713h-1.037l1.296 8.551-.518 1.814.518 2.461 2.98-1.295 4.275-5.312 5.571-3.757 8.939-10.623 1.166-1.814 2.332-.777c1.814-2.592 2.893-4.362 3.239-5.312l1.813-1.166 5.83-6.607.519-2.592h5.052l-.777-3.498 2.85-2.072 1.425-4.017 4.664-2.332 5.571-9.587 1.166-1.295v-1.166l1.814-5.571-2.332-7.644c-5.528-1.727-8.896-3.584-10.105-5.571z"/>
 </g>
</svg>
