<svg xmlns="http://www.w3.org/2000/svg" viewBox="0 0 487.91 487.91"  width="24" height="24"><title>Wilgotność</title><path d="M244.065 53.968l-23.73 35.351C203.432 114.534 119.05 243.293 119.05 302.257c0 68.903 56.082 124.982 125.018 124.982 68.904 0 124.982-56.082 124.982-124.982 0-58.938-84.352-187.723-101.259-212.938zm.378 349.063c-17.806 0-47.236-9.413-67.256-28.47-22.07-21.008-33.925-52.676-33.925-72.305 0-4.77.703-15.971 4.658-27.972 5.65-17.144 15.227-40.157 26.59-62.885 6.414-12.831 14.229-25.414 21.447-38.05 17.35-30.365 36.002-56.963 48.487-77.256 11.396 18.515 29.995 45.924 46.432 74.467 8.084 14.04 16.012 26.176 23.027 40.115 11.482 22.814 21.563 46.268 27.196 62.926 4.389 12.978 4.12 22.98 4.12 28.277 0 19.402-9.45 51.157-31.053 72.15-20.08 19.511-51.688 29.004-69.722 29.004z"/></svg>