<svg xmlns="http://www.w3.org/2000/svg" viewBox="0 0 488 488" width="24" height="24"><title>Wschód słońca</title><path d="M124.6 420.85c1.8 1.9 4.4 2.9 7 2.9h.1l112.3-.8 112.4.8c2.7 0 5.2-1 7-2.9 1.9-1.9 3-4.4 3-7.1 0-43.8-23.3-84.6-60.9-106.5-38.1-21.7-85-21.7-122.3 0-38 21.6-61.6 62.4-61.6 106.5 0 2.7 1.1 5.2 3 7.1zm68.5-96.3c31.3-18.2 70.5-18.2 102.4 0 28.5 16.6 47.2 46.3 50.4 79.1l-101.9-.7-102 .7c3.2-32.9 22.2-62.6 51.1-79.1zM244 238.95c5.5 0 10-4.5 10-10v-50.8c0-5.5-4.5-10-10-10s-10 4.5-10 10v50.8c0 5.5 4.5 10 10 10zM376.3 290.55c2.6 0 5.1-1 7.1-3l41.3-41.6c3.8-3.9 3.8-10.2-.1-14.1-3.9-3.8-10.2-3.8-14.1.1l-41.3 41.6c-3.8 3.9-3.8 10.2.1 14.1 1.9 1.9 4.5 2.9 7 2.9zM104.6 287.55c2 2 4.5 3 7.1 3 2.6 0 5.1-1 7-2.9 4-3.8 4-10.2.1-14.1l-41.3-41.6c-3.8-4-10.2-4-14.1-.1-4 3.8-4 10.2-.1 14.1zM478 403.75h-50.5c-5.5 0-10 4.5-10 10s4.5 10 10 10H478c5.5 0 10-4.5 10-10s-4.5-10-10-10zM70.5 413.75c0-5.5-4.5-10-10-10H10c-5.5 0-10 4.5-10 10s4.5 10 10 10h50.5c5.5 0 10-4.5 10-10z"/><path d="M181.013 142.47l53-53v139.7c0 5.5 4.5 10 10 10s10-4.5 10-10V89.47l53 53c3.9 3.9 10.2 3.9 14.1 0 3.9-3.9 3.9-10.2 0-14.1l-70.1-70.1c-1.9-1.9-4.4-2.9-7.1-2.9-2.7 0-5.2 1.1-7.1 2.9l-70.1 70.1c-3.7 3.9-3.7 10.2.2 14.1 3.9 3.9 10.2 3.9 14.1 0z"/></svg>